<?xml version="1.0" encoding="iso-8859-1"?>
<!-- Generator: Adobe Illustrator 16.0.0, SVG Export Plug-In . SVG Version: 6.00 Build 0)  -->
<!DOCTYPE svg PUBLIC "-//W3C//DTD SVG 1.1//EN" "http://www.w3.org/Graphics/SVG/1.1/DTD/svg11.dtd">
<svg version="1.1" id="Capa_1" xmlns="http://www.w3.org/2000/svg" xmlns:xlink="http://www.w3.org/1999/xlink" x="0px" y="0px"
	 width="490.728px" height="490.728px" viewBox="0 0 490.728 490.728" style="enable-background:new 0 0 490.728 490.728;"
	 xml:space="preserve">
<g>
	<path d="M393.589,25.16l-193.5,193.503l22.807,104.411C359.313,255.522,490.728,25.153,490.728,25.153
		C463.903-1.669,420.414-1.669,393.589,25.16z M239.188,208.187c3.401-3.398,8.908-3.398,12.298,0c3.393,3.395,3.393,8.897,0,12.292
		c-3.39,3.396-8.896,3.396-12.298,0C235.799,217.084,235.799,211.582,239.188,208.187z M229.783,312.18l-5.298-6.78
		C338.332,246.056,469.931,39.863,471.271,37.677l8.245-5.94C478.186,33.934,344.488,252.37,229.783,312.18z M191.512,233.719
		l16.511,78.592c0,0-74.496,26.353-132.929,160.493c-17.179,17.183-45.02,17.183-62.205,0c-17.188-17.183-17.183-45.029,0-62.211
		L191.512,233.719z"/>
</g>
<g>
</g>
<g>
</g>
<g>
</g>
<g>
</g>
<g>
</g>
<g>
</g>
<g>
</g>
<g>
</g>
<g>
</g>
<g>
</g>
<g>
</g>
<g>
</g>
<g>
</g>
<g>
</g>
<g>
</g>
</svg>
