<?xml version="1.0" encoding="UTF-8"?>
<svg width="480px" height="406px" viewBox="0 0 480 406" version="1.1" xmlns="http://www.w3.org/2000/svg" xmlns:xlink="http://www.w3.org/1999/xlink">
    <!-- Generator: Sketch 49.3 (51167) - http://www.bohemiancoding.com/sketch -->
    <title>Clouds</title>
    <desc>Created with Sketch.</desc>
    <defs></defs>
    <g id="Page-1" stroke="none" stroke-width="1" fill="none" fill-rule="evenodd">
        <g id="Clouds" fill-rule="nonzero">
            <g id="ID0.9465992692857981" transform="translate(0.000000, 26.000000)">
                <polygon id="ID0.3935864847153425" fill="#E3FCF2" points="0 0 480 0 480 360 0 360"></polygon>
                <path d="M25,338 C26.931,338 28.681,338.784 29.948,340.052 C31.216,341.319 32,343.069 32,345 C32,346.931 31.216,348.681 29.948,349.948 C28.681,351.216 26.931,352 25,352 C23.069,352 21.319,351.216 20.052,349.948 C18.784,348.681 18,346.931 18,345 C18,343.069 18.784,341.319 20.052,340.052 C21.319,338.784 23.069,338 25,338 Z" id="ID0.3475734209641814" fill="#D1F6EA"></path>
                <path d="M25,281 C26.931,281 28.681,281.784 29.948,283.052 C31.216,284.319 32,286.069 32,288 C32,289.931 31.216,291.681 29.948,292.948 C28.681,294.216 26.931,295 25,295 C23.069,295 21.319,294.216 20.052,292.948 C18.784,291.681 18,289.931 18,288 C18,286.069 18.784,284.319 20.052,283.052 C21.319,281.784 23.069,281 25,281 Z" id="ID0.3475734209641814" fill="#D1F6EA"></path>
                <path d="M26,217 C27.931,217 29.681,217.784 30.948,219.052 C32.216,220.319 33,222.069 33,224 C33,225.931 32.216,227.681 30.948,228.948 C29.681,230.216 27.931,231 26,231 C24.069,231 22.319,230.216 21.052,228.948 C19.784,227.681 19,225.931 19,224 C19,222.069 19.784,220.319 21.052,219.052 C22.319,217.784 24.069,217 26,217 Z" id="ID0.3475734209641814" fill="#D1F6EA"></path>
                <path d="M25,155 C26.931,155 28.681,155.784 29.948,157.052 C31.216,158.319 32,160.069 32,162 C32,163.931 31.216,165.681 29.948,166.948 C28.681,168.216 26.931,169 25,169 C23.069,169 21.319,168.216 20.052,166.948 C18.784,165.681 18,163.931 18,162 C18,160.069 18.784,158.319 20.052,157.052 C21.319,155.784 23.069,155 25,155 Z" id="ID0.3475734209641814" fill="#D1F6EA"></path>
                <path d="M25,99 C26.931,99 28.681,99.784 29.948,101.052 C31.216,102.319 32,104.069 32,106 C32,107.931 31.216,109.681 29.948,110.948 C28.681,112.216 26.931,113 25,113 C23.069,113 21.319,112.216 20.052,110.948 C18.784,109.681 18,107.931 18,106 C18,104.069 18.784,102.319 20.052,101.052 C21.319,99.784 23.069,99 25,99 Z" id="ID0.3475734209641814" fill="#D1F6EA"></path>
                <path d="M25,41 C26.931,41 28.681,41.784 29.948,43.052 C31.216,44.319 32,46.069 32,48 C32,49.931 31.216,51.681 29.948,52.948 C28.681,54.216 26.931,55 25,55 C23.069,55 21.319,54.216 20.052,52.948 C18.784,51.681 18,49.931 18,48 C18,46.069 18.784,44.319 20.052,43.052 C21.319,41.784 23.069,41 25,41 Z" id="ID0.3475734209641814" fill="#D1F6EA"></path>
                <path d="M65.5,302.5 C67.431,302.5 69.181,303.284 70.448,304.552 C71.716,305.819 72.5,307.569 72.5,309.5 C72.5,311.431 71.716,313.181 70.448,314.448 C69.181,315.716 67.431,316.5 65.5,316.5 C63.569,316.5 61.819,315.716 60.552,314.448 C59.284,313.181 58.5,311.431 58.5,309.5 C58.5,307.569 59.284,305.819 60.552,304.552 C61.819,303.284 63.569,302.5 65.5,302.5 Z" id="ID0.3475734209641814" fill="#D1F6EA"></path>
                <path d="M65.5,245.5 C67.431,245.5 69.181,246.284 70.448,247.552 C71.716,248.819 72.5,250.569 72.5,252.5 C72.5,254.431 71.716,256.181 70.448,257.448 C69.181,258.716 67.431,259.5 65.5,259.5 C63.569,259.5 61.819,258.716 60.552,257.448 C59.284,256.181 58.5,254.431 58.5,252.5 C58.5,250.569 59.284,248.819 60.552,247.552 C61.819,246.284 63.569,245.5 65.5,245.5 Z" id="ID0.3475734209641814" fill="#D1F6EA"></path>
                <path d="M66.5,181.5 C68.431,181.5 70.181,182.284 71.448,183.552 C72.716,184.819 73.5,186.569 73.5,188.5 C73.5,190.431 72.716,192.181 71.448,193.448 C70.181,194.716 68.431,195.5 66.5,195.5 C64.569,195.5 62.819,194.716 61.552,193.448 C60.284,192.181 59.5,190.431 59.5,188.5 C59.5,186.569 60.284,184.819 61.552,183.552 C62.819,182.284 64.569,181.5 66.5,181.5 Z" id="ID0.3475734209641814" fill="#D1F6EA"></path>
                <path d="M65.5,119.5 C67.431,119.5 69.181,120.284 70.448,121.552 C71.716,122.819 72.5,124.569 72.5,126.5 C72.5,128.431 71.716,130.181 70.448,131.448 C69.181,132.716 67.431,133.5 65.5,133.5 C63.569,133.5 61.819,132.716 60.552,131.448 C59.284,130.181 58.5,128.431 58.5,126.5 C58.5,124.569 59.284,122.819 60.552,121.552 C61.819,120.284 63.569,119.5 65.5,119.5 Z" id="ID0.3475734209641814" fill="#D1F6EA"></path>
                <path d="M65.5,63.5 C67.431,63.5 69.181,64.284 70.448,65.552 C71.716,66.819 72.5,68.569 72.5,70.5 C72.5,72.431 71.716,74.181 70.448,75.448 C69.181,76.716 67.431,77.5 65.5,77.5 C63.569,77.5 61.819,76.716 60.552,75.448 C59.284,74.181 58.5,72.431 58.5,70.5 C58.5,68.569 59.284,66.819 60.552,65.552 C61.819,64.284 63.569,63.5 65.5,63.5 Z" id="ID0.3475734209641814" fill="#D1F6EA"></path>
                <path d="M65.5,5.5 C67.431,5.5 69.181,6.284 70.448,7.552 C71.716,8.819 72.5,10.569 72.5,12.5 C72.5,14.431 71.716,16.181 70.448,17.448 C69.181,18.716 67.431,19.5 65.5,19.5 C63.569,19.5 61.819,18.716 60.552,17.448 C59.284,16.181 58.5,14.431 58.5,12.5 C58.5,10.569 59.284,8.819 60.552,7.552 C61.819,6.284 63.569,5.5 65.5,5.5 Z" id="ID0.3475734209641814" fill="#D1F6EA"></path>
                <path d="M105.25,336.25 C107.181,336.25 108.931,337.034 110.198,338.302 C111.466,339.569 112.25,341.319 112.25,343.25 C112.25,345.181 111.466,346.931 110.198,348.198 C108.931,349.466 107.181,350.25 105.25,350.25 C103.319,350.25 101.569,349.466 100.302,348.198 C99.034,346.931 98.25,345.181 98.25,343.25 C98.25,341.319 99.034,339.569 100.302,338.302 C101.569,337.034 103.319,336.25 105.25,336.25 Z" id="ID0.3475734209641814" fill="#D1F6EA"></path>
                <path d="M105.25,279.25 C107.181,279.25 108.931,280.034 110.198,281.302 C111.466,282.569 112.25,284.319 112.25,286.25 C112.25,288.181 111.466,289.931 110.198,291.198 C108.931,292.466 107.181,293.25 105.25,293.25 C103.319,293.25 101.569,292.466 100.302,291.198 C99.034,289.931 98.25,288.181 98.25,286.25 C98.25,284.319 99.034,282.569 100.302,281.302 C101.569,280.034 103.319,279.25 105.25,279.25 Z" id="ID0.3475734209641814" fill="#D1F6EA"></path>
                <path d="M106.25,215.25 C108.181,215.25 109.931,216.034 111.198,217.302 C112.466,218.569 113.25,220.319 113.25,222.25 C113.25,224.181 112.466,225.931 111.198,227.198 C109.931,228.466 108.181,229.25 106.25,229.25 C104.319,229.25 102.569,228.466 101.302,227.198 C100.034,225.931 99.25,224.181 99.25,222.25 C99.25,220.319 100.034,218.569 101.302,217.302 C102.569,216.034 104.319,215.25 106.25,215.25 Z" id="ID0.3475734209641814" fill="#D1F6EA"></path>
                <path d="M105.25,153.25 C107.181,153.25 108.931,154.034 110.198,155.302 C111.466,156.569 112.25,158.319 112.25,160.25 C112.25,162.181 111.466,163.931 110.198,165.198 C108.931,166.466 107.181,167.25 105.25,167.25 C103.319,167.25 101.569,166.466 100.302,165.198 C99.034,163.931 98.25,162.181 98.25,160.25 C98.25,158.319 99.034,156.569 100.302,155.302 C101.569,154.034 103.319,153.25 105.25,153.25 Z" id="ID0.3475734209641814" fill="#D1F6EA"></path>
                <path d="M105.25,97.25 C107.181,97.25 108.931,98.034 110.198,99.302 C111.466,100.569 112.25,102.319 112.25,104.25 C112.25,106.181 111.466,107.931 110.198,109.198 C108.931,110.466 107.181,111.25 105.25,111.25 C103.319,111.25 101.569,110.466 100.302,109.198 C99.034,107.931 98.25,106.181 98.25,104.25 C98.25,102.319 99.034,100.569 100.302,99.302 C101.569,98.034 103.319,97.25 105.25,97.25 Z" id="ID0.3475734209641814" fill="#D1F6EA"></path>
                <path d="M105.25,39.25 C107.181,39.25 108.931,40.034 110.198,41.302 C111.466,42.569 112.25,44.319 112.25,46.25 C112.25,48.181 111.466,49.931 110.198,51.198 C108.931,52.466 107.181,53.25 105.25,53.25 C103.319,53.25 101.569,52.466 100.302,51.198 C99.034,49.931 98.25,48.181 98.25,46.25 C98.25,44.319 99.034,42.569 100.302,41.302 C101.569,40.034 103.319,39.25 105.25,39.25 Z" id="ID0.3475734209641814" fill="#D1F6EA"></path>
                <path d="M145.75,300.75 C147.681,300.75 149.431,301.534 150.698,302.802 C151.966,304.069 152.75,305.819 152.75,307.75 C152.75,309.681 151.966,311.431 150.698,312.698 C149.431,313.966 147.681,314.75 145.75,314.75 C143.819,314.75 142.069,313.966 140.802,312.698 C139.534,311.431 138.75,309.681 138.75,307.75 C138.75,305.819 139.534,304.069 140.802,302.802 C142.069,301.534 143.819,300.75 145.75,300.75 Z" id="ID0.3475734209641814" fill="#D1F6EA"></path>
                <path d="M145.75,243.75 C147.681,243.75 149.431,244.534 150.698,245.802 C151.966,247.069 152.75,248.819 152.75,250.75 C152.75,252.681 151.966,254.431 150.698,255.698 C149.431,256.966 147.681,257.75 145.75,257.75 C143.819,257.75 142.069,256.966 140.802,255.698 C139.534,254.431 138.75,252.681 138.75,250.75 C138.75,248.819 139.534,247.069 140.802,245.802 C142.069,244.534 143.819,243.75 145.75,243.75 Z" id="ID0.3475734209641814" fill="#D1F6EA"></path>
                <path d="M146.75,179.75 C148.681,179.75 150.431,180.534 151.698,181.802 C152.966,183.069 153.75,184.819 153.75,186.75 C153.75,188.681 152.966,190.431 151.698,191.698 C150.431,192.966 148.681,193.75 146.75,193.75 C144.819,193.75 143.069,192.966 141.802,191.698 C140.534,190.431 139.75,188.681 139.75,186.75 C139.75,184.819 140.534,183.069 141.802,181.802 C143.069,180.534 144.819,179.75 146.75,179.75 Z" id="ID0.3475734209641814" fill="#D1F6EA"></path>
                <path d="M145.75,117.75 C147.681,117.75 149.431,118.534 150.698,119.802 C151.966,121.069 152.75,122.819 152.75,124.75 C152.75,126.681 151.966,128.431 150.698,129.698 C149.431,130.966 147.681,131.75 145.75,131.75 C143.819,131.75 142.069,130.966 140.802,129.698 C139.534,128.431 138.75,126.681 138.75,124.75 C138.75,122.819 139.534,121.069 140.802,119.802 C142.069,118.534 143.819,117.75 145.75,117.75 Z" id="ID0.3475734209641814" fill="#D1F6EA"></path>
                <path d="M145.75,61.75 C147.681,61.75 149.431,62.534 150.698,63.802 C151.966,65.069 152.75,66.819 152.75,68.75 C152.75,70.681 151.966,72.431 150.698,73.698 C149.431,74.966 147.681,75.75 145.75,75.75 C143.819,75.75 142.069,74.966 140.802,73.698 C139.534,72.431 138.75,70.681 138.75,68.75 C138.75,66.819 139.534,65.069 140.802,63.802 C142.069,62.534 143.819,61.75 145.75,61.75 Z" id="ID0.3475734209641814" fill="#D1F6EA"></path>
                <path d="M145.75,3.75 C147.681,3.75 149.431,4.534 150.698,5.802 C151.966,7.069 152.75,8.819 152.75,10.75 C152.75,12.681 151.966,14.431 150.698,15.698 C149.431,16.966 147.681,17.75 145.75,17.75 C143.819,17.75 142.069,16.966 140.802,15.698 C139.534,14.431 138.75,12.681 138.75,10.75 C138.75,8.819 139.534,7.069 140.802,5.802 C142.069,4.534 143.819,3.75 145.75,3.75 Z" id="ID0.3475734209641814" fill="#D1F6EA"></path>
                <path d="M186.3,340.25 C188.231,340.25 189.981,341.034 191.248,342.302 C192.516,343.569 193.3,345.319 193.3,347.25 C193.3,349.181 192.516,350.931 191.248,352.198 C189.981,353.466 188.231,354.25 186.3,354.25 C184.369,354.25 182.619,353.466 181.352,352.198 C180.084,350.931 179.3,349.181 179.3,347.25 C179.3,345.319 180.084,343.569 181.352,342.302 C182.619,341.034 184.369,340.25 186.3,340.25 Z" id="ID0.3475734209641814" fill="#D1F6EA"></path>
                <path d="M186.3,283.3 C188.231,283.3 189.981,284.084 191.248,285.352 C192.516,286.619 193.3,288.369 193.3,290.3 C193.3,292.231 192.516,293.981 191.248,295.248 C189.981,296.516 188.231,297.3 186.3,297.3 C184.369,297.3 182.619,296.516 181.352,295.248 C180.084,293.981 179.3,292.231 179.3,290.3 C179.3,288.369 180.084,286.619 181.352,285.352 C182.619,284.084 184.369,283.3 186.3,283.3 Z" id="ID0.3475734209641814" fill="#D1F6EA"></path>
                <path d="M187.3,219.3 C189.231,219.3 190.981,220.084 192.248,221.352 C193.516,222.619 194.3,224.369 194.3,226.3 C194.3,228.231 193.516,229.981 192.248,231.248 C190.981,232.516 189.231,233.3 187.3,233.3 C185.369,233.3 183.619,232.516 182.352,231.248 C181.084,229.981 180.3,228.231 180.3,226.3 C180.3,224.369 181.084,222.619 182.352,221.352 C183.619,220.084 185.369,219.3 187.3,219.3 Z" id="ID0.3475734209641814" fill="#D1F6EA"></path>
                <path d="M186.3,157.3 C188.231,157.3 189.981,158.084 191.248,159.352 C192.516,160.619 193.3,162.369 193.3,164.3 C193.3,166.231 192.516,167.981 191.248,169.248 C189.981,170.516 188.231,171.3 186.3,171.3 C184.369,171.3 182.619,170.516 181.352,169.248 C180.084,167.981 179.3,166.231 179.3,164.3 C179.3,162.369 180.084,160.619 181.352,159.352 C182.619,158.084 184.369,157.3 186.3,157.3 Z" id="ID0.3475734209641814" fill="#D1F6EA"></path>
                <path d="M186.3,101.3 C188.231,101.3 189.981,102.084 191.248,103.352 C192.516,104.619 193.3,106.369 193.3,108.3 C193.3,110.231 192.516,111.981 191.248,113.248 C189.981,114.516 188.231,115.3 186.3,115.3 C184.369,115.3 182.619,114.516 181.352,113.248 C180.084,111.981 179.3,110.231 179.3,108.3 C179.3,106.369 180.084,104.619 181.352,103.352 C182.619,102.084 184.369,101.3 186.3,101.3 Z" id="ID0.3475734209641814" fill="#D1F6EA"></path>
                <path d="M186.3,43.3 C188.231,43.3 189.981,44.084 191.248,45.352 C192.516,46.619 193.3,48.369 193.3,50.3 C193.3,52.231 192.516,53.981 191.248,55.248 C189.981,56.516 188.231,57.3 186.3,57.3 C184.369,57.3 182.619,56.516 181.352,55.248 C180.084,53.981 179.3,52.231 179.3,50.3 C179.3,48.369 180.084,46.619 181.352,45.352 C182.619,44.084 184.369,43.3 186.3,43.3 Z" id="ID0.3475734209641814" fill="#D1F6EA"></path>
                <path d="M226.8,304.9 C228.731,304.9 230.481,305.684 231.748,306.952 C233.016,308.219 233.8,309.969 233.8,311.9 C233.8,313.831 233.016,315.581 231.748,316.848 C230.481,318.116 228.731,318.9 226.8,318.9 C224.869,318.9 223.119,318.116 221.852,316.848 C220.584,315.581 219.8,313.831 219.8,311.9 C219.8,309.969 220.584,308.219 221.852,306.952 C223.119,305.684 224.869,304.9 226.8,304.9 Z" id="ID0.3475734209641814" fill="#D1F6EA"></path>
                <path d="M226.8,247.8 C228.731,247.8 230.481,248.584 231.748,249.852 C233.016,251.119 233.8,252.869 233.8,254.8 C233.8,256.731 233.016,258.481 231.748,259.748 C230.481,261.016 228.731,261.8 226.8,261.8 C224.869,261.8 223.119,261.016 221.852,259.748 C220.584,258.481 219.8,256.731 219.8,254.8 C219.8,252.869 220.584,251.119 221.852,249.852 C223.119,248.584 224.869,247.8 226.8,247.8 Z" id="ID0.3475734209641814" fill="#D1F6EA"></path>
                <path d="M227.8,183.8 C229.731,183.8 231.481,184.584 232.748,185.852 C234.016,187.119 234.8,188.869 234.8,190.8 C234.8,192.731 234.016,194.481 232.748,195.748 C231.481,197.016 229.731,197.8 227.8,197.8 C225.869,197.8 224.119,197.016 222.852,195.748 C221.584,194.481 220.8,192.731 220.8,190.8 C220.8,188.869 221.584,187.119 222.852,185.852 C224.119,184.584 225.869,183.8 227.8,183.8 Z" id="ID0.3475734209641814" fill="#D1F6EA"></path>
                <path d="M226.8,121.8 C228.731,121.8 230.481,122.584 231.748,123.852 C233.016,125.119 233.8,126.869 233.8,128.8 C233.8,130.731 233.016,132.481 231.748,133.748 C230.481,135.016 228.731,135.8 226.8,135.8 C224.869,135.8 223.119,135.016 221.852,133.748 C220.584,132.481 219.8,130.731 219.8,128.8 C219.8,126.869 220.584,125.119 221.852,123.852 C223.119,122.584 224.869,121.8 226.8,121.8 Z" id="ID0.3475734209641814" fill="#D1F6EA"></path>
                <path d="M226.8,65.8 C228.731,65.8 230.481,66.584 231.748,67.852 C233.016,69.119 233.8,70.869 233.8,72.8 C233.8,74.731 233.016,76.481 231.748,77.748 C230.481,79.016 228.731,79.8 226.8,79.8 C224.869,79.8 223.119,79.016 221.852,77.748 C220.584,76.481 219.8,74.731 219.8,72.8 C219.8,70.869 220.584,69.119 221.852,67.852 C223.119,66.584 224.869,65.8 226.8,65.8 Z" id="ID0.3475734209641814" fill="#D1F6EA"></path>
                <path d="M226.8,7.8 C228.731,7.8 230.481,8.584 231.748,9.852 C233.016,11.119 233.8,12.869 233.8,14.8 C233.8,16.731 233.016,18.481 231.748,19.748 C230.481,21.016 228.731,21.8 226.8,21.8 C224.869,21.8 223.119,21.016 221.852,19.748 C220.584,18.481 219.8,16.731 219.8,14.8 C219.8,12.869 220.584,11.119 221.852,9.852 C223.119,8.584 224.869,7.8 226.8,7.8 Z" id="ID0.3475734209641814" fill="#D1F6EA"></path>
                <path d="M266.55,338.55 C268.481,338.55 270.231,339.334 271.498,340.602 C272.766,341.869 273.55,343.619 273.55,345.55 C273.55,347.481 272.766,349.231 271.498,350.498 C270.231,351.766 268.481,352.55 266.55,352.55 C264.619,352.55 262.869,351.766 261.602,350.498 C260.334,349.231 259.55,347.481 259.55,345.55 C259.55,343.619 260.334,341.869 261.602,340.602 C262.869,339.334 264.619,338.55 266.55,338.55 Z" id="ID0.3475734209641814" fill="#D1F6EA"></path>
                <path d="M266.55,281.55 C268.481,281.55 270.231,282.334 271.498,283.602 C272.766,284.869 273.55,286.619 273.55,288.55 C273.55,290.481 272.766,292.231 271.498,293.498 C270.231,294.766 268.481,295.55 266.55,295.55 C264.619,295.55 262.869,294.766 261.602,293.498 C260.334,292.231 259.55,290.481 259.55,288.55 C259.55,286.619 260.334,284.869 261.602,283.602 C262.869,282.334 264.619,281.55 266.55,281.55 Z" id="ID0.3475734209641814" fill="#D1F6EA"></path>
                <path d="M267.55,217.55 C269.481,217.55 271.231,218.334 272.498,219.602 C273.766,220.869 274.55,222.619 274.55,224.55 C274.55,226.481 273.766,228.231 272.498,229.498 C271.231,230.766 269.481,231.55 267.55,231.55 C265.619,231.55 263.869,230.766 262.602,229.498 C261.334,228.231 260.55,226.481 260.55,224.55 C260.55,222.619 261.334,220.869 262.602,219.602 C263.869,218.334 265.619,217.55 267.55,217.55 Z" id="ID0.3475734209641814" fill="#D1F6EA"></path>
                <path d="M266.55,155.55 C268.481,155.55 270.231,156.334 271.498,157.602 C272.766,158.869 273.55,160.619 273.55,162.55 C273.55,164.481 272.766,166.231 271.498,167.498 C270.231,168.766 268.481,169.55 266.55,169.55 C264.619,169.55 262.869,168.766 261.602,167.498 C260.334,166.231 259.55,164.481 259.55,162.55 C259.55,160.619 260.334,158.869 261.602,157.602 C262.869,156.334 264.619,155.55 266.55,155.55 Z" id="ID0.3475734209641814" fill="#D1F6EA"></path>
                <path d="M266.55,99.55 C268.481,99.55 270.231,100.334 271.498,101.602 C272.766,102.869 273.55,104.619 273.55,106.55 C273.55,108.481 272.766,110.231 271.498,111.498 C270.231,112.766 268.481,113.55 266.55,113.55 C264.619,113.55 262.869,112.766 261.602,111.498 C260.334,110.231 259.55,108.481 259.55,106.55 C259.55,104.619 260.334,102.869 261.602,101.602 C262.869,100.334 264.619,99.55 266.55,99.55 Z" id="ID0.3475734209641814" fill="#D1F6EA"></path>
                <path d="M266.55,41.55 C268.481,41.55 270.231,42.334 271.498,43.602 C272.766,44.869 273.55,46.619 273.55,48.55 C273.55,50.481 272.766,52.231 271.498,53.498 C270.231,54.766 268.481,55.55 266.55,55.55 C264.619,55.55 262.869,54.766 261.602,53.498 C260.334,52.231 259.55,50.481 259.55,48.55 C259.55,46.619 260.334,44.869 261.602,43.602 C262.869,42.334 264.619,41.55 266.55,41.55 Z" id="ID0.3475734209641814" fill="#D1F6EA"></path>
                <path d="M307.05,305.15 C308.981,305.15 310.731,305.934 311.998,307.202 C313.266,308.469 314.05,310.219 314.05,312.15 C314.05,314.081 313.266,315.831 311.998,317.098 C310.731,318.366 308.981,319.15 307.05,319.15 C305.119,319.15 303.369,318.366 302.102,317.098 C300.834,315.831 300.05,314.081 300.05,312.15 C300.05,310.219 300.834,308.469 302.102,307.202 C303.369,305.934 305.119,305.15 307.05,305.15 Z" id="ID0.3475734209641814" fill="#D1F6EA"></path>
                <path d="M307.05,246.05 C308.981,246.05 310.731,246.834 311.998,248.102 C313.266,249.369 314.05,251.119 314.05,253.05 C314.05,254.981 313.266,256.731 311.998,257.998 C310.731,259.266 308.981,260.05 307.05,260.05 C305.119,260.05 303.369,259.266 302.102,257.998 C300.834,256.731 300.05,254.981 300.05,253.05 C300.05,251.119 300.834,249.369 302.102,248.102 C303.369,246.834 305.119,246.05 307.05,246.05 Z" id="ID0.3475734209641814" fill="#D1F6EA"></path>
                <path d="M308.05,182.05 C309.981,182.05 311.731,182.834 312.998,184.102 C314.266,185.369 315.05,187.119 315.05,189.05 C315.05,190.981 314.266,192.731 312.998,193.998 C311.731,195.266 309.981,196.05 308.05,196.05 C306.119,196.05 304.369,195.266 303.102,193.998 C301.834,192.731 301.05,190.981 301.05,189.05 C301.05,187.119 301.834,185.369 303.102,184.102 C304.369,182.834 306.119,182.05 308.05,182.05 Z" id="ID0.3475734209641814" fill="#D1F6EA"></path>
                <path d="M307.05,120.05 C308.981,120.05 310.731,120.834 311.998,122.102 C313.266,123.369 314.05,125.119 314.05,127.05 C314.05,128.981 313.266,130.731 311.998,131.998 C310.731,133.266 308.981,134.05 307.05,134.05 C305.119,134.05 303.369,133.266 302.102,131.998 C300.834,130.731 300.05,128.981 300.05,127.05 C300.05,125.119 300.834,123.369 302.102,122.102 C303.369,120.834 305.119,120.05 307.05,120.05 Z" id="ID0.3475734209641814" fill="#D1F6EA"></path>
                <path d="M307.05,64.05 C308.981,64.05 310.731,64.834 311.998,66.102 C313.266,67.369 314.05,69.119 314.05,71.05 C314.05,72.981 313.266,74.731 311.998,75.998 C310.731,77.266 308.981,78.05 307.05,78.05 C305.119,78.05 303.369,77.266 302.102,75.998 C300.834,74.731 300.05,72.981 300.05,71.05 C300.05,69.119 300.834,67.369 302.102,66.102 C303.369,64.834 305.119,64.05 307.05,64.05 Z" id="ID0.3475734209641814" fill="#D1F6EA"></path>
                <path d="M307.05,6.05 C308.981,6.05 310.731,6.834 311.998,8.102 C313.266,9.369 314.05,11.119 314.05,13.05 C314.05,14.981 313.266,16.731 311.998,17.998 C310.731,19.266 308.981,20.05 307.05,20.05 C305.119,20.05 303.369,19.266 302.102,17.998 C300.834,16.731 300.05,14.981 300.05,13.05 C300.05,11.119 300.834,9.369 302.102,8.102 C303.369,6.834 305.119,6.05 307.05,6.05 Z" id="ID0.3475734209641814" fill="#D1F6EA"></path>
                <path d="M339.1,336.1 C341.031,336.1 342.781,336.884 344.048,338.152 C345.316,339.419 346.1,341.169 346.1,343.1 C346.1,345.031 345.316,346.781 344.048,348.048 C342.781,349.316 341.031,350.1 339.1,350.1 C337.169,350.1 335.419,349.316 334.152,348.048 C332.884,346.781 332.1,345.031 332.1,343.1 C332.1,341.169 332.884,339.419 334.152,338.152 C335.419,336.884 337.169,336.1 339.1,336.1 Z" id="ID0.3475734209641814" fill="#D1F6EA"></path>
                <path d="M339.1,279.1 C341.031,279.1 342.781,279.884 344.048,281.152 C345.316,282.419 346.1,284.169 346.1,286.1 C346.1,288.031 345.316,289.781 344.048,291.048 C342.781,292.316 341.031,293.1 339.1,293.1 C337.169,293.1 335.419,292.316 334.152,291.048 C332.884,289.781 332.1,288.031 332.1,286.1 C332.1,284.169 332.884,282.419 334.152,281.152 C335.419,279.884 337.169,279.1 339.1,279.1 Z" id="ID0.3475734209641814" fill="#D1F6EA"></path>
                <path d="M340.1,215.1 C342.031,215.1 343.781,215.884 345.048,217.152 C346.316,218.419 347.1,220.169 347.1,222.1 C347.1,224.031 346.316,225.781 345.048,227.048 C343.781,228.316 342.031,229.1 340.1,229.1 C338.169,229.1 336.419,228.316 335.152,227.048 C333.884,225.781 333.1,224.031 333.1,222.1 C333.1,220.169 333.884,218.419 335.152,217.152 C336.419,215.884 338.169,215.1 340.1,215.1 Z" id="ID0.3475734209641814" fill="#D1F6EA"></path>
                <path d="M339.1,153.1 C341.031,153.1 342.781,153.884 344.048,155.152 C345.316,156.419 346.1,158.169 346.1,160.1 C346.1,162.031 345.316,163.781 344.048,165.048 C342.781,166.316 341.031,167.1 339.1,167.1 C337.169,167.1 335.419,166.316 334.152,165.048 C332.884,163.781 332.1,162.031 332.1,160.1 C332.1,158.169 332.884,156.419 334.152,155.152 C335.419,153.884 337.169,153.1 339.1,153.1 Z" id="ID0.3475734209641814" fill="#D1F6EA"></path>
                <path d="M339.1,97.1 C341.031,97.1 342.781,97.884 344.048,99.152 C345.316,100.419 346.1,102.169 346.1,104.1 C346.1,106.031 345.316,107.781 344.048,109.048 C342.781,110.316 341.031,111.1 339.1,111.1 C337.169,111.1 335.419,110.316 334.152,109.048 C332.884,107.781 332.1,106.031 332.1,104.1 C332.1,102.169 332.884,100.419 334.152,99.152 C335.419,97.884 337.169,97.1 339.1,97.1 Z" id="ID0.3475734209641814" fill="#D1F6EA"></path>
                <path d="M339.1,39.1 C341.031,39.1 342.781,39.884 344.048,41.152 C345.316,42.419 346.1,44.169 346.1,46.1 C346.1,48.031 345.316,49.781 344.048,51.048 C342.781,52.316 341.031,53.1 339.1,53.1 C337.169,53.1 335.419,52.316 334.152,51.048 C332.884,49.781 332.1,48.031 332.1,46.1 C332.1,44.169 332.884,42.419 334.152,41.152 C335.419,39.884 337.169,39.1 339.1,39.1 Z" id="ID0.3475734209641814" fill="#D1F6EA"></path>
                <path d="M379.6,300.65 C381.531,300.65 383.281,301.434 384.548,302.702 C385.816,303.969 386.6,305.719 386.6,307.65 C386.6,309.581 385.816,311.331 384.548,312.598 C383.281,313.866 381.531,314.65 379.6,314.65 C377.669,314.65 375.919,313.866 374.652,312.598 C373.384,311.331 372.6,309.581 372.6,307.65 C372.6,305.719 373.384,303.969 374.652,302.702 C375.919,301.434 377.669,300.65 379.6,300.65 Z" id="ID0.3475734209641814" fill="#D1F6EA"></path>
                <path d="M379.6,243.6 C381.531,243.6 383.281,244.384 384.548,245.652 C385.816,246.919 386.6,248.669 386.6,250.6 C386.6,252.531 385.816,254.281 384.548,255.548 C383.281,256.816 381.531,257.6 379.6,257.6 C377.669,257.6 375.919,256.816 374.652,255.548 C373.384,254.281 372.6,252.531 372.6,250.6 C372.6,248.669 373.384,246.919 374.652,245.652 C375.919,244.384 377.669,243.6 379.6,243.6 Z" id="ID0.3475734209641814" fill="#D1F6EA"></path>
                <path d="M380.6,179.6 C382.531,179.6 384.281,180.384 385.548,181.652 C386.816,182.919 387.6,184.669 387.6,186.6 C387.6,188.531 386.816,190.281 385.548,191.548 C384.281,192.816 382.531,193.6 380.6,193.6 C378.669,193.6 376.919,192.816 375.652,191.548 C374.384,190.281 373.6,188.531 373.6,186.6 C373.6,184.669 374.384,182.919 375.652,181.652 C376.919,180.384 378.669,179.6 380.6,179.6 Z" id="ID0.3475734209641814" fill="#D1F6EA"></path>
                <path d="M379.6,117.6 C381.531,117.6 383.281,118.384 384.548,119.652 C385.816,120.919 386.6,122.669 386.6,124.6 C386.6,126.531 385.816,128.281 384.548,129.548 C383.281,130.816 381.531,131.6 379.6,131.6 C377.669,131.6 375.919,130.816 374.652,129.548 C373.384,128.281 372.6,126.531 372.6,124.6 C372.6,122.669 373.384,120.919 374.652,119.652 C375.919,118.384 377.669,117.6 379.6,117.6 Z" id="ID0.3475734209641814" fill="#D1F6EA"></path>
                <path d="M379.6,61.6 C381.531,61.6 383.281,62.384 384.548,63.652 C385.816,64.919 386.6,66.669 386.6,68.6 C386.6,70.531 385.816,72.281 384.548,73.548 C383.281,74.816 381.531,75.6 379.6,75.6 C377.669,75.6 375.919,74.816 374.652,73.548 C373.384,72.281 372.6,70.531 372.6,68.6 C372.6,66.669 373.384,64.919 374.652,63.652 C375.919,62.384 377.669,61.6 379.6,61.6 Z" id="ID0.3475734209641814" fill="#D1F6EA"></path>
                <path d="M379.6,3.6 C381.531,3.6 383.281,4.384 384.548,5.652 C385.816,6.919 386.6,8.669 386.6,10.6 C386.6,12.531 385.816,14.281 384.548,15.548 C383.281,16.816 381.531,17.6 379.6,17.6 C377.669,17.6 375.919,16.816 374.652,15.548 C373.384,14.281 372.6,12.531 372.6,10.6 C372.6,8.669 373.384,6.919 374.652,5.652 C375.919,4.384 377.669,3.6 379.6,3.6 Z" id="ID0.3475734209641814" fill="#D1F6EA"></path>
                <path d="M419.35,334.35 C421.281,334.35 423.031,335.134 424.298,336.402 C425.566,337.669 426.35,339.419 426.35,341.35 C426.35,343.281 425.566,345.031 424.298,346.298 C423.031,347.566 421.281,348.35 419.35,348.35 C417.419,348.35 415.669,347.566 414.402,346.298 C413.134,345.031 412.35,343.281 412.35,341.35 C412.35,339.419 413.134,337.669 414.402,336.402 C415.669,335.134 417.419,334.35 419.35,334.35 Z" id="ID0.3475734209641814" fill="#D1F6EA"></path>
                <path d="M419.35,277.35 C421.281,277.35 423.031,278.134 424.298,279.402 C425.566,280.669 426.35,282.419 426.35,284.35 C426.35,286.281 425.566,288.031 424.298,289.298 C423.031,290.566 421.281,291.35 419.35,291.35 C417.419,291.35 415.669,290.566 414.402,289.298 C413.134,288.031 412.35,286.281 412.35,284.35 C412.35,282.419 413.134,280.669 414.402,279.402 C415.669,278.134 417.419,277.35 419.35,277.35 Z" id="ID0.3475734209641814" fill="#D1F6EA"></path>
                <path d="M420.35,213.35 C422.281,213.35 424.031,214.134 425.298,215.402 C426.566,216.669 427.35,218.419 427.35,220.35 C427.35,222.281 426.566,224.031 425.298,225.298 C424.031,226.566 422.281,227.35 420.35,227.35 C418.419,227.35 416.669,226.566 415.402,225.298 C414.134,224.031 413.35,222.281 413.35,220.35 C413.35,218.419 414.134,216.669 415.402,215.402 C416.669,214.134 418.419,213.35 420.35,213.35 Z" id="ID0.3475734209641814" fill="#D1F6EA"></path>
                <path d="M419.35,151.35 C421.281,151.35 423.031,152.134 424.298,153.402 C425.566,154.669 426.35,156.419 426.35,158.35 C426.35,160.281 425.566,162.031 424.298,163.298 C423.031,164.566 421.281,165.35 419.35,165.35 C417.419,165.35 415.669,164.566 414.402,163.298 C413.134,162.031 412.35,160.281 412.35,158.35 C412.35,156.419 413.134,154.669 414.402,153.402 C415.669,152.134 417.419,151.35 419.35,151.35 Z" id="ID0.3475734209641814" fill="#D1F6EA"></path>
                <path d="M419.35,95.35 C421.281,95.35 423.031,96.134 424.298,97.402 C425.566,98.669 426.35,100.419 426.35,102.35 C426.35,104.281 425.566,106.031 424.298,107.298 C423.031,108.566 421.281,109.35 419.35,109.35 C417.419,109.35 415.669,108.566 414.402,107.298 C413.134,106.031 412.35,104.281 412.35,102.35 C412.35,100.419 413.134,98.669 414.402,97.402 C415.669,96.134 417.419,95.35 419.35,95.35 Z" id="ID0.3475734209641814" fill="#D1F6EA"></path>
                <path d="M419.35,37.35 C421.281,37.35 423.031,38.134 424.298,39.402 C425.566,40.669 426.35,42.419 426.35,44.35 C426.35,46.281 425.566,48.031 424.298,49.298 C423.031,50.566 421.281,51.35 419.35,51.35 C417.419,51.35 415.669,50.566 414.402,49.298 C413.134,48.031 412.35,46.281 412.35,44.35 C412.35,42.419 413.134,40.669 414.402,39.402 C415.669,38.134 417.419,37.35 419.35,37.35 Z" id="ID0.3475734209641814" fill="#D1F6EA"></path>
                <path d="M459.85,298.9 C461.781,298.9 463.531,299.684 464.798,300.952 C466.066,302.219 466.85,303.969 466.85,305.9 C466.85,307.831 466.066,309.581 464.798,310.848 C463.531,312.116 461.781,312.9 459.85,312.9 C457.919,312.9 456.169,312.116 454.902,310.848 C453.634,309.581 452.85,307.831 452.85,305.9 C452.85,303.969 453.634,302.219 454.902,300.952 C456.169,299.684 457.919,298.9 459.85,298.9 Z" id="ID0.3475734209641814" fill="#D1F6EA"></path>
                <path d="M459.85,241.85 C461.781,241.85 463.531,242.634 464.798,243.902 C466.066,245.169 466.85,246.919 466.85,248.85 C466.85,250.781 466.066,252.531 464.798,253.798 C463.531,255.066 461.781,255.85 459.85,255.85 C457.919,255.85 456.169,255.066 454.902,253.798 C453.634,252.531 452.85,250.781 452.85,248.85 C452.85,246.919 453.634,245.169 454.902,243.902 C456.169,242.634 457.919,241.85 459.85,241.85 Z" id="ID0.3475734209641814" fill="#D1F6EA"></path>
                <path d="M460.85,177.85 C462.781,177.85 464.531,178.634 465.798,179.902 C467.066,181.169 467.85,182.919 467.85,184.85 C467.85,186.781 467.066,188.531 465.798,189.798 C464.531,191.066 462.781,191.85 460.85,191.85 C458.919,191.85 457.169,191.066 455.902,189.798 C454.634,188.531 453.85,186.781 453.85,184.85 C453.85,182.919 454.634,181.169 455.902,179.902 C457.169,178.634 458.919,177.85 460.85,177.85 Z" id="ID0.3475734209641814" fill="#D1F6EA"></path>
                <path d="M459.85,115.85 C461.781,115.85 463.531,116.634 464.798,117.902 C466.066,119.169 466.85,120.919 466.85,122.85 C466.85,124.781 466.066,126.531 464.798,127.798 C463.531,129.066 461.781,129.85 459.85,129.85 C457.919,129.85 456.169,129.066 454.902,127.798 C453.634,126.531 452.85,124.781 452.85,122.85 C452.85,120.919 453.634,119.169 454.902,117.902 C456.169,116.634 457.919,115.85 459.85,115.85 Z" id="ID0.3475734209641814" fill="#D1F6EA"></path>
                <path d="M459.85,59.85 C461.781,59.85 463.531,60.634 464.798,61.902 C466.066,63.169 466.85,64.919 466.85,66.85 C466.85,68.781 466.066,70.531 464.798,71.798 C463.531,73.066 461.781,73.85 459.85,73.85 C457.919,73.85 456.169,73.066 454.902,71.798 C453.634,70.531 452.85,68.781 452.85,66.85 C452.85,64.919 453.634,63.169 454.902,61.902 C456.169,60.634 457.919,59.85 459.85,59.85 Z" id="ID0.3475734209641814" fill="#D1F6EA"></path>
                <path d="M459.85,1.85 C461.781,1.85 463.531,2.634 464.798,3.902 C466.066,5.169 466.85,6.919 466.85,8.85 C466.85,10.781 466.066,12.531 464.798,13.798 C463.531,15.066 461.781,15.85 459.85,15.85 C457.919,15.85 456.169,15.066 454.902,13.798 C453.634,12.531 452.85,10.781 452.85,8.85 C452.85,6.919 453.634,5.169 454.902,3.902 C456.169,2.634 457.919,1.85 459.85,1.85 Z" id="ID0.3475734209641814" fill="#D1F6EA"></path>
            </g>
            <g id="ID0.613494704477489" transform="translate(33.000000, 58.000000)" fill="#FFFFFF">
                <polygon id="ID0.0076875207014381886" points="23.4498356 18.2408787 60.5052097 18.7555367 65.6517895 47.0617252 10.5833862 47.0617252"></polygon>
                <path d="M12.3846891,22.8728004 C15.7212168,22.8728004 18.7448324,24.2278949 20.9347021,26.4172499 C23.1240571,28.6071196 24.4791515,31.6307352 24.4791515,34.9672628 C24.4791515,38.3037905 23.1240571,41.3274061 20.9347021,43.5172758 C18.7448324,45.7066308 15.7212168,47.0617252 12.3846891,47.0617252 C9.04816149,47.0617252 6.02454589,45.7066308 3.83467621,43.5172758 C1.64532119,41.3274061 0.290226746,38.3037905 0.290226746,34.9672628 C0.290226746,31.6307352 1.64532119,28.6071196 3.83467621,26.4172499 C6.02454589,24.2278949 9.04816149,22.8728004 12.3846891,22.8728004 Z" id="ID0.8799208626151085"></path>
                <path d="M67.2346891,23.2228004 C70.5712168,23.2228004 73.5948324,24.5778949 75.7847021,26.7672499 C77.9740571,28.9571196 79.3291515,31.9807352 79.3291515,35.3172628 C79.3291515,38.6537905 77.9740571,41.6774061 75.7847021,43.8672758 C73.5948324,46.0566308 70.5712168,47.4117252 67.2346891,47.4117252 C63.8981615,47.4117252 60.8745459,46.0566308 58.6846762,43.8672758 C56.4953212,41.6774061 55.1402267,38.6537905 55.1402267,35.3172628 C55.1402267,31.9807352 56.4953212,28.9571196 58.6846762,26.7672499 C60.8745459,24.5778949 63.8981615,23.2228004 67.2346891,23.2228004 Z" id="ID0.8799208626151085"></path>
                <path d="M56.4346891,8.77280045 C59.7712168,8.77280045 62.7948324,10.1278949 64.9847021,12.3172499 C67.1740571,14.5071196 68.5291515,17.5307352 68.5291515,20.8672628 C68.5291515,24.2037905 67.1740571,27.2274061 64.9847021,29.4172758 C62.7948324,31.6066308 59.7712168,32.9617252 56.4346891,32.9617252 C53.0981615,32.9617252 50.0745459,31.6066308 47.8846762,29.4172758 C45.6953212,27.2274061 44.3402267,24.2037905 44.3402267,20.8672628 C44.3402267,17.5307352 45.6953212,14.5071196 47.8846762,12.3172499 C50.0745459,10.1278949 53.0981615,8.77280045 56.4346891,8.77280045 Z" id="ID0.8799208626151085"></path>
                <path d="M39.9346891,0.572800446 C43.2712168,0.572800446 46.2948324,1.92789489 48.4847021,4.11724991 C50.6740571,6.30711959 52.0291515,9.33073519 52.0291515,12.6672628 C52.0291515,16.0037905 50.6740571,19.0274061 48.4847021,21.2172758 C46.2948324,23.4066308 43.2712168,24.7617252 39.9346891,24.7617252 C36.5981615,24.7617252 33.5745459,23.4066308 31.3846762,21.2172758 C29.1953212,19.0274061 27.8402267,16.0037905 27.8402267,12.6672628 C27.8402267,9.33073519 29.1953212,6.30711959 31.3846762,4.11724991 C33.5745459,1.92789489 36.5981615,0.572800446 39.9346891,0.572800446 Z" id="ID0.8799208626151085"></path>
                <path d="M21.9346891,9.42280045 C25.2712168,9.42280045 28.2948324,10.7778949 30.4847021,12.9672499 C32.6740571,15.1571196 34.0291515,18.1807352 34.0291515,21.5172628 C34.0291515,24.8537905 32.6740571,27.8774061 30.4847021,30.0672758 C28.2948324,32.2566308 25.2712168,33.6117252 21.9346891,33.6117252 C18.5981615,33.6117252 15.5745459,32.2566308 13.3846762,30.0672758 C11.1953212,27.8774061 9.84022675,24.8537905 9.84022675,21.5172628 C9.84022675,18.1807352 11.1953212,15.1571196 13.3846762,12.9672499 C15.5745459,10.7778949 18.5981615,9.42280045 21.9346891,9.42280045 Z" id="ID0.8799208626151085"></path>
            </g>
            <g id="ID0.613494704477489" transform="translate(33.000000, 181.000000)" fill="#FFFFFF">
                <polygon id="ID0.0076875207014381886" points="23.5498356 18.2908787 60.6052097 18.8055367 65.7517895 47.1117252 10.6833862 47.1117252"></polygon>
                <path d="M12.4846891,22.9228004 C15.8212168,22.9228004 18.8448324,24.2778949 21.0347021,26.4672499 C23.2240571,28.6571196 24.5791515,31.6807352 24.5791515,35.0172628 C24.5791515,38.3537905 23.2240571,41.3774061 21.0347021,43.5672758 C18.8448324,45.7566308 15.8212168,47.1117252 12.4846891,47.1117252 C9.14816149,47.1117252 6.12454589,45.7566308 3.93467621,43.5672758 C1.74532119,41.3774061 0.390226746,38.3537905 0.390226746,35.0172628 C0.390226746,31.6807352 1.74532119,28.6571196 3.93467621,26.4672499 C6.12454589,24.2778949 9.14816149,22.9228004 12.4846891,22.9228004 Z" id="ID0.8799208626151085"></path>
                <path d="M67.3346891,23.2228004 C70.6712168,23.2228004 73.6948324,24.5778949 75.8847021,26.7672499 C78.0740571,28.9571196 79.4291515,31.9807352 79.4291515,35.3172628 C79.4291515,38.6537905 78.0740571,41.6774061 75.8847021,43.8672758 C73.6948324,46.0566308 70.6712168,47.4117252 67.3346891,47.4117252 C63.9981615,47.4117252 60.9745459,46.0566308 58.7846762,43.8672758 C56.5953212,41.6774061 55.2402267,38.6537905 55.2402267,35.3172628 C55.2402267,31.9807352 56.5953212,28.9571196 58.7846762,26.7672499 C60.9745459,24.5778949 63.9981615,23.2228004 67.3346891,23.2228004 Z" id="ID0.8799208626151085"></path>
                <path d="M56.5346891,8.77280045 C59.8712168,8.77280045 62.8948324,10.1278949 65.0847021,12.3172499 C67.2740571,14.5071196 68.6291515,17.5307352 68.6291515,20.8672628 C68.6291515,24.2037905 67.2740571,27.2274061 65.0847021,29.4172758 C62.8948324,31.6066308 59.8712168,32.9617252 56.5346891,32.9617252 C53.1981615,32.9617252 50.1745459,31.6066308 47.9846762,29.4172758 C45.7953212,27.2274061 44.4402267,24.2037905 44.4402267,20.8672628 C44.4402267,17.5307352 45.7953212,14.5071196 47.9846762,12.3172499 C50.1745459,10.1278949 53.1981615,8.77280045 56.5346891,8.77280045 Z" id="ID0.8799208626151085"></path>
                <path d="M40.0346891,0.572800446 C43.3712168,0.572800446 46.3948324,1.92789489 48.5847021,4.11724991 C50.7740571,6.30711959 52.1291515,9.33073519 52.1291515,12.6672628 C52.1291515,16.0037905 50.7740571,19.0274061 48.5847021,21.2172758 C46.3948324,23.4066308 43.3712168,24.7617252 40.0346891,24.7617252 C36.6981615,24.7617252 33.6745459,23.4066308 31.4846762,21.2172758 C29.2953212,19.0274061 27.9402267,16.0037905 27.9402267,12.6672628 C27.9402267,9.33073519 29.2953212,6.30711959 31.4846762,4.11724991 C33.6745459,1.92789489 36.6981615,0.572800446 40.0346891,0.572800446 Z" id="ID0.8799208626151085"></path>
                <path d="M22.0346891,9.32280045 C25.3712168,9.32280045 28.3948324,10.6778949 30.5847021,12.8672499 C32.7740571,15.0571196 34.1291515,18.0807352 34.1291515,21.4172628 C34.1291515,24.7537905 32.7740571,27.7774061 30.5847021,29.9672758 C28.3948324,32.1566308 25.3712168,33.5117252 22.0346891,33.5117252 C18.6981615,33.5117252 15.6745459,32.1566308 13.4846762,29.9672758 C11.2953212,27.7774061 9.94022675,24.7537905 9.94022675,21.4172628 C9.94022675,18.0807352 11.2953212,15.0571196 13.4846762,12.8672499 C15.6745459,10.6778949 18.6981615,9.32280045 22.0346891,9.32280045 Z" id="ID0.8799208626151085"></path>
            </g>
            <g id="ID0.613494704477489" transform="translate(32.000000, 307.000000)" fill="#FFFFFF">
                <polygon id="ID0.0076875207014381886" points="23.7498356 18.2908787 60.8052097 18.8055367 65.9517895 47.1117252 10.8833862 47.1117252"></polygon>
                <path d="M12.6846891,22.9228004 C16.0212168,22.9228004 19.0448324,24.2778949 21.2347021,26.4672499 C23.4240571,28.6571196 24.7791515,31.6807352 24.7791515,35.0172628 C24.7791515,38.3537905 23.4240571,41.3774061 21.2347021,43.5672758 C19.0448324,45.7566308 16.0212168,47.1117252 12.6846891,47.1117252 C9.34816149,47.1117252 6.32454589,45.7566308 4.13467621,43.5672758 C1.94532119,41.3774061 0.590226746,38.3537905 0.590226746,35.0172628 C0.590226746,31.6807352 1.94532119,28.6571196 4.13467621,26.4672499 C6.32454589,24.2778949 9.34816149,22.9228004 12.6846891,22.9228004 Z" id="ID0.8799208626151085"></path>
                <path d="M67.5346891,23.2228004 C70.8712168,23.2228004 73.8948324,24.5778949 76.0847021,26.7672499 C78.2740571,28.9571196 79.6291515,31.9807352 79.6291515,35.3172628 C79.6291515,38.6537905 78.2740571,41.6774061 76.0847021,43.8672758 C73.8948324,46.0566308 70.8712168,47.4117252 67.5346891,47.4117252 C64.1981615,47.4117252 61.1745459,46.0566308 58.9846762,43.8672758 C56.7953212,41.6774061 55.4402267,38.6537905 55.4402267,35.3172628 C55.4402267,31.9807352 56.7953212,28.9571196 58.9846762,26.7672499 C61.1745459,24.5778949 64.1981615,23.2228004 67.5346891,23.2228004 Z" id="ID0.8799208626151085"></path>
                <path d="M56.7346891,8.77280045 C60.0712168,8.77280045 63.0948324,10.1278949 65.2847021,12.3172499 C67.4740571,14.5071196 68.8291515,17.5307352 68.8291515,20.8672628 C68.8291515,24.2037905 67.4740571,27.2274061 65.2847021,29.4172758 C63.0948324,31.6066308 60.0712168,32.9617252 56.7346891,32.9617252 C53.3981615,32.9617252 50.3745459,31.6066308 48.1846762,29.4172758 C45.9953212,27.2274061 44.6402267,24.2037905 44.6402267,20.8672628 C44.6402267,17.5307352 45.9953212,14.5071196 48.1846762,12.3172499 C50.3745459,10.1278949 53.3981615,8.77280045 56.7346891,8.77280045 Z" id="ID0.8799208626151085"></path>
                <path d="M40.2346891,0.572800446 C43.5712168,0.572800446 46.5948324,1.92789489 48.7847021,4.11724991 C50.9740571,6.30711959 52.3291515,9.33073519 52.3291515,12.6672628 C52.3291515,16.0037905 50.9740571,19.0274061 48.7847021,21.2172758 C46.5948324,23.4066308 43.5712168,24.7617252 40.2346891,24.7617252 C36.8981615,24.7617252 33.8745459,23.4066308 31.6846762,21.2172758 C29.4953212,19.0274061 28.1402267,16.0037905 28.1402267,12.6672628 C28.1402267,9.33073519 29.4953212,6.30711959 31.6846762,4.11724991 C33.8745459,1.92789489 36.8981615,0.572800446 40.2346891,0.572800446 Z" id="ID0.8799208626151085"></path>
                <path d="M22.2346891,9.32280045 C25.5712168,9.32280045 28.5948324,10.6778949 30.7847021,12.8672499 C32.9740571,15.0571196 34.3291515,18.0807352 34.3291515,21.4172628 C34.3291515,24.7537905 32.9740571,27.7774061 30.7847021,29.9672758 C28.5948324,32.1566308 25.5712168,33.5117252 22.2346891,33.5117252 C18.8981615,33.5117252 15.8745459,32.1566308 13.6846762,29.9672758 C11.4953212,27.7774061 10.1402267,24.7537905 10.1402267,21.4172628 C10.1402267,18.0807352 11.4953212,15.0571196 13.6846762,12.8672499 C15.8745459,10.6778949 18.8981615,9.32280045 22.2346891,9.32280045 Z" id="ID0.8799208626151085"></path>
            </g>
            <g id="ID0.613494704477489" transform="translate(150.000000, 260.000000)" fill="#FFFFFF">
                <polygon id="ID0.0076875207014381886" points="17.5469066 14.3423733 45.4496266 14.7299111 49.3250043 36.0444888 7.85846214 36.0444888"></polygon>
                <path d="M9.21484436,17.8302133 C11.7272518,17.8302133 14.0040362,18.8506003 15.6530095,20.499186 C17.3015952,22.1481592 18.3219821,24.4249436 18.3219821,26.9373511 C18.3219821,29.4497585 17.3015952,31.7265429 15.6530095,33.3755162 C14.0040362,35.0241019 11.7272518,36.0444888 9.21484436,36.0444888 C6.70243695,36.0444888 4.42565251,35.0241019 2.77667927,33.3755162 C1.12809356,31.7265429 0.107706594,29.4497585 0.107706594,26.9373511 C0.107706594,24.4249436 1.12809356,22.1481592 2.77667927,20.499186 C4.42565251,18.8506003 6.70243695,17.8302133 9.21484436,17.8302133 Z" id="ID0.8799208626151085"></path>
                <path d="M50.5148444,18.0802133 C53.0272518,18.0802133 55.3040362,19.1006003 56.9530095,20.749186 C58.6015952,22.3981592 59.6219821,24.6749436 59.6219821,27.1873511 C59.6219821,29.6997585 58.6015952,31.9765429 56.9530095,33.6255162 C55.3040362,35.2741019 53.0272518,36.2944888 50.5148444,36.2944888 C48.002437,36.2944888 45.7256525,35.2741019 44.0766793,33.6255162 C42.4280936,31.9765429 41.4077066,29.6997585 41.4077066,27.1873511 C41.4077066,24.6749436 42.4280936,22.3981592 44.0766793,20.749186 C45.7256525,19.1006003 48.002437,18.0802133 50.5148444,18.0802133 Z" id="ID0.8799208626151085"></path>
                <path d="M42.4148444,7.18021328 C44.9272518,7.18021328 47.2040362,8.20060025 48.8530095,9.84918596 C50.5015952,11.4981592 51.5219821,13.7749436 51.5219821,16.2873511 C51.5219821,18.7997585 50.5015952,21.0765429 48.8530095,22.7255162 C47.2040362,24.3741019 44.9272518,25.3944888 42.4148444,25.3944888 C39.902437,25.3944888 37.6256525,24.3741019 35.9766793,22.7255162 C34.3280936,21.0765429 33.3077066,18.7997585 33.3077066,16.2873511 C33.3077066,13.7749436 34.3280936,11.4981592 35.9766793,9.84918596 C37.6256525,8.20060025 39.902437,7.18021328 42.4148444,7.18021328 Z" id="ID0.8799208626151085"></path>
                <path d="M29.9648444,0.980213284 C32.4772518,0.980213284 34.7540362,2.00060025 36.4030095,3.64918596 C38.0515952,5.2981592 39.0719821,7.57494364 39.0719821,10.0873511 C39.0719821,12.5997585 38.0515952,14.8765429 36.4030095,16.5255162 C34.7540362,18.1741019 32.4772518,19.1944888 29.9648444,19.1944888 C27.452437,19.1944888 25.1756525,18.1741019 23.5266793,16.5255162 C21.8780936,14.8765429 20.8577066,12.5997585 20.8577066,10.0873511 C20.8577066,7.57494364 21.8780936,5.2981592 23.5266793,3.64918596 C25.1756525,2.00060025 27.452437,0.980213284 29.9648444,0.980213284 Z" id="ID0.8799208626151085"></path>
                <path d="M16.4148444,7.58021328 C18.9272518,7.58021328 21.2040362,8.60060025 22.8530095,10.249186 C24.5015952,11.8981592 25.5219821,14.1749436 25.5219821,16.6873511 C25.5219821,19.1997585 24.5015952,21.4765429 22.8530095,23.1255162 C21.2040362,24.7741019 18.9272518,25.7944888 16.4148444,25.7944888 C13.902437,25.7944888 11.6256525,24.7741019 9.97667927,23.1255162 C8.32809356,21.4765429 7.30770659,19.1997585 7.30770659,16.6873511 C7.30770659,14.1749436 8.32809356,11.8981592 9.97667927,10.249186 C11.6256525,8.60060025 13.902437,7.58021328 16.4148444,7.58021328 Z" id="ID0.8799208626151085"></path>
            </g>
            <g id="ID0.613494704477489" transform="translate(143.000000, 124.000000)" fill="#FFFFFF">
                <polygon id="ID0.0076875207014381886" points="17.6469066 13.7423733 45.5496266 14.1299111 49.4250043 35.4444888 7.95846214 35.4444888"></polygon>
                <path d="M9.31484436,17.2302133 C11.8272518,17.2302133 14.1040362,18.2506003 15.7530095,19.899186 C17.4015952,21.5481592 18.4219821,23.8249436 18.4219821,26.3373511 C18.4219821,28.8497585 17.4015952,31.1265429 15.7530095,32.7755162 C14.1040362,34.4241019 11.8272518,35.4444888 9.31484436,35.4444888 C6.80243695,35.4444888 4.52565251,34.4241019 2.87667927,32.7755162 C1.22809356,31.1265429 0.207706594,28.8497585 0.207706594,26.3373511 C0.207706594,23.8249436 1.22809356,21.5481592 2.87667927,19.899186 C4.52565251,18.2506003 6.80243695,17.2302133 9.31484436,17.2302133 Z" id="ID0.8799208626151085"></path>
                <path d="M50.6148444,17.4802133 C53.1272518,17.4802133 55.4040362,18.5006003 57.0530095,20.149186 C58.7015952,21.7981592 59.7219821,24.0749436 59.7219821,26.5873511 C59.7219821,29.0997585 58.7015952,31.3765429 57.0530095,33.0255162 C55.4040362,34.6741019 53.1272518,35.6944888 50.6148444,35.6944888 C48.102437,35.6944888 45.8256525,34.6741019 44.1766793,33.0255162 C42.5280936,31.3765429 41.5077066,29.0997585 41.5077066,26.5873511 C41.5077066,24.0749436 42.5280936,21.7981592 44.1766793,20.149186 C45.8256525,18.5006003 48.102437,17.4802133 50.6148444,17.4802133 Z" id="ID0.8799208626151085"></path>
                <path d="M42.5148444,6.53021328 C45.0272518,6.53021328 47.3040362,7.55060025 48.9530095,9.19918596 C50.6015952,10.8481592 51.6219821,13.1249436 51.6219821,15.6373511 C51.6219821,18.1497585 50.6015952,20.4265429 48.9530095,22.0755162 C47.3040362,23.7241019 45.0272518,24.7444888 42.5148444,24.7444888 C40.002437,24.7444888 37.7256525,23.7241019 36.0766793,22.0755162 C34.4280936,20.4265429 33.4077066,18.1497585 33.4077066,15.6373511 C33.4077066,13.1249436 34.4280936,10.8481592 36.0766793,9.19918596 C37.7256525,7.55060025 40.002437,6.53021328 42.5148444,6.53021328 Z" id="ID0.8799208626151085"></path>
                <path d="M30.0648444,0.380213284 C32.5772518,0.380213284 34.8540362,1.40060025 36.5030095,3.04918596 C38.1515952,4.6981592 39.1719821,6.97494364 39.1719821,9.48735105 C39.1719821,11.9997585 38.1515952,14.2765429 36.5030095,15.9255162 C34.8540362,17.5741019 32.5772518,18.5944888 30.0648444,18.5944888 C27.552437,18.5944888 25.2756525,17.5741019 23.6266793,15.9255162 C21.9780936,14.2765429 20.9577066,11.9997585 20.9577066,9.48735105 C20.9577066,6.97494364 21.9780936,4.6981592 23.6266793,3.04918596 C25.2756525,1.40060025 27.552437,0.380213284 30.0648444,0.380213284 Z" id="ID0.8799208626151085"></path>
                <path d="M16.5148444,6.98021328 C19.0272518,6.98021328 21.3040362,8.00060025 22.9530095,9.64918596 C24.6015952,11.2981592 25.6219821,13.5749436 25.6219821,16.0873511 C25.6219821,18.5997585 24.6015952,20.8765429 22.9530095,22.5255162 C21.3040362,24.1741019 19.0272518,25.1944888 16.5148444,25.1944888 C14.002437,25.1944888 11.7256525,24.1741019 10.0766793,22.5255162 C8.42809356,20.8765429 7.40770659,18.5997585 7.40770659,16.0873511 C7.40770659,13.5749436 8.42809356,11.2981592 10.0766793,9.64918596 C11.7256525,8.00060025 14.002437,6.98021328 16.5148444,6.98021328 Z" id="ID0.8799208626151085"></path>
            </g>
            <g id="ID0.613494704477489" transform="translate(259.000000, 66.000000)" fill="#FFFFFF">
                <polygon id="ID0.0076875207014381886" points="23.9498356 17.7908787 61.0052097 18.3055367 66.1517895 46.6117252 11.0833862 46.6117252"></polygon>
                <path d="M12.8846891,22.4228004 C16.2212168,22.4228004 19.2448324,23.7778949 21.4347021,25.9672499 C23.6240571,28.1571196 24.9791515,31.1807352 24.9791515,34.5172628 C24.9791515,37.8537905 23.6240571,40.8774061 21.4347021,43.0672758 C19.2448324,45.2566308 16.2212168,46.6117252 12.8846891,46.6117252 C9.54816149,46.6117252 6.52454589,45.2566308 4.33467621,43.0672758 C2.14532119,40.8774061 0.790226746,37.8537905 0.790226746,34.5172628 C0.790226746,31.1807352 2.14532119,28.1571196 4.33467621,25.9672499 C6.52454589,23.7778949 9.54816149,22.4228004 12.8846891,22.4228004 Z" id="ID0.8799208626151085"></path>
                <path d="M67.7346891,22.7228004 C71.0712168,22.7228004 74.0948324,24.0778949 76.2847021,26.2672499 C78.4740571,28.4571196 79.8291515,31.4807352 79.8291515,34.8172628 C79.8291515,38.1537905 78.4740571,41.1774061 76.2847021,43.3672758 C74.0948324,45.5566308 71.0712168,46.9117252 67.7346891,46.9117252 C64.3981615,46.9117252 61.3745459,45.5566308 59.1846762,43.3672758 C56.9953212,41.1774061 55.6402267,38.1537905 55.6402267,34.8172628 C55.6402267,31.4807352 56.9953212,28.4571196 59.1846762,26.2672499 C61.3745459,24.0778949 64.3981615,22.7228004 67.7346891,22.7228004 Z" id="ID0.8799208626151085"></path>
                <path d="M56.9346891,8.27280045 C60.2712168,8.27280045 63.2948324,9.62789489 65.4847021,11.8172499 C67.6740571,14.0071196 69.0291515,17.0307352 69.0291515,20.3672628 C69.0291515,23.7037905 67.6740571,26.7274061 65.4847021,28.9172758 C63.2948324,31.1066308 60.2712168,32.4617252 56.9346891,32.4617252 C53.5981615,32.4617252 50.5745459,31.1066308 48.3846762,28.9172758 C46.1953212,26.7274061 44.8402267,23.7037905 44.8402267,20.3672628 C44.8402267,17.0307352 46.1953212,14.0071196 48.3846762,11.8172499 C50.5745459,9.62789489 53.5981615,8.27280045 56.9346891,8.27280045 Z" id="ID0.8799208626151085"></path>
                <path d="M40.4346891,0.122800446 C43.7712168,0.122800446 46.7948324,1.47789489 48.9847021,3.66724991 C51.1740571,5.85711959 52.5291515,8.88073519 52.5291515,12.2172628 C52.5291515,15.5537905 51.1740571,18.5774061 48.9847021,20.7672758 C46.7948324,22.9566308 43.7712168,24.3117252 40.4346891,24.3117252 C37.0981615,24.3117252 34.0745459,22.9566308 31.8846762,20.7672758 C29.6953212,18.5774061 28.3402267,15.5537905 28.3402267,12.2172628 C28.3402267,8.88073519 29.6953212,5.85711959 31.8846762,3.66724991 C34.0745459,1.47789489 37.0981615,0.122800446 40.4346891,0.122800446 Z" id="ID0.8799208626151085"></path>
                <path d="M22.4346891,8.82280045 C25.7712168,8.82280045 28.7948324,10.1778949 30.9847021,12.3672499 C33.1740571,14.5571196 34.5291515,17.5807352 34.5291515,20.9172628 C34.5291515,24.2537905 33.1740571,27.2774061 30.9847021,29.4672758 C28.7948324,31.6566308 25.7712168,33.0117252 22.4346891,33.0117252 C19.0981615,33.0117252 16.0745459,31.6566308 13.8846762,29.4672758 C11.6953212,27.2774061 10.3402267,24.2537905 10.3402267,20.9172628 C10.3402267,17.5807352 11.6953212,14.5571196 13.8846762,12.3672499 C16.0745459,10.1778949 19.0981615,8.82280045 22.4346891,8.82280045 Z" id="ID0.8799208626151085"></path>
            </g>
            <g id="ID0.613494704477489" transform="translate(259.000000, 189.000000)" fill="#FFFFFF">
                <polygon id="ID0.0076875207014381886" points="24.0498356 17.7908787 61.1052097 18.3055367 66.2517895 46.6117252 11.1833862 46.6117252"></polygon>
                <path d="M12.9846891,22.4228004 C16.3212168,22.4228004 19.3448324,23.7778949 21.5347021,25.9672499 C23.7240571,28.1571196 25.0791515,31.1807352 25.0791515,34.5172628 C25.0791515,37.8537905 23.7240571,40.8774061 21.5347021,43.0672758 C19.3448324,45.2566308 16.3212168,46.6117252 12.9846891,46.6117252 C9.64816149,46.6117252 6.62454589,45.2566308 4.43467621,43.0672758 C2.24532119,40.8774061 0.890226746,37.8537905 0.890226746,34.5172628 C0.890226746,31.1807352 2.24532119,28.1571196 4.43467621,25.9672499 C6.62454589,23.7778949 9.64816149,22.4228004 12.9846891,22.4228004 Z" id="ID0.8799208626151085"></path>
                <path d="M67.8346891,22.7228004 C71.1712168,22.7228004 74.1948324,24.0778949 76.3847021,26.2672499 C78.5740571,28.4571196 79.9291515,31.4807352 79.9291515,34.8172628 C79.9291515,38.1537905 78.5740571,41.1774061 76.3847021,43.3672758 C74.1948324,45.5566308 71.1712168,46.9117252 67.8346891,46.9117252 C64.4981615,46.9117252 61.4745459,45.5566308 59.2846762,43.3672758 C57.0953212,41.1774061 55.7402267,38.1537905 55.7402267,34.8172628 C55.7402267,31.4807352 57.0953212,28.4571196 59.2846762,26.2672499 C61.4745459,24.0778949 64.4981615,22.7228004 67.8346891,22.7228004 Z" id="ID0.8799208626151085"></path>
                <path d="M57.0346891,8.27280045 C60.3712168,8.27280045 63.3948324,9.62789489 65.5847021,11.8172499 C67.7740571,14.0071196 69.1291515,17.0307352 69.1291515,20.3672628 C69.1291515,23.7037905 67.7740571,26.7274061 65.5847021,28.9172758 C63.3948324,31.1066308 60.3712168,32.4617252 57.0346891,32.4617252 C53.6981615,32.4617252 50.6745459,31.1066308 48.4846762,28.9172758 C46.2953212,26.7274061 44.9402267,23.7037905 44.9402267,20.3672628 C44.9402267,17.0307352 46.2953212,14.0071196 48.4846762,11.8172499 C50.6745459,9.62789489 53.6981615,8.27280045 57.0346891,8.27280045 Z" id="ID0.8799208626151085"></path>
                <path d="M40.5346891,0.0728004456 C43.8712168,0.0728004456 46.8948324,1.42789489 49.0847021,3.61724991 C51.2740571,5.80711959 52.6291515,8.83073519 52.6291515,12.1672628 C52.6291515,15.5037905 51.2740571,18.5274061 49.0847021,20.7172758 C46.8948324,22.9066308 43.8712168,24.2617252 40.5346891,24.2617252 C37.1981615,24.2617252 34.1745459,22.9066308 31.9846762,20.7172758 C29.7953212,18.5274061 28.4402267,15.5037905 28.4402267,12.1672628 C28.4402267,8.83073519 29.7953212,5.80711959 31.9846762,3.61724991 C34.1745459,1.42789489 37.1981615,0.0728004456 40.5346891,0.0728004456 Z" id="ID0.8799208626151085"></path>
                <path d="M22.5346891,8.82280045 C25.8712168,8.82280045 28.8948324,10.1778949 31.0847021,12.3672499 C33.2740571,14.5571196 34.6291515,17.5807352 34.6291515,20.9172628 C34.6291515,24.2537905 33.2740571,27.2774061 31.0847021,29.4672758 C28.8948324,31.6566308 25.8712168,33.0117252 22.5346891,33.0117252 C19.1981615,33.0117252 16.1745459,31.6566308 13.9846762,29.4672758 C11.7953212,27.2774061 10.4402267,24.2537905 10.4402267,20.9172628 C10.4402267,17.5807352 11.7953212,14.5571196 13.9846762,12.3672499 C16.1745459,10.1778949 19.1981615,8.82280045 22.5346891,8.82280045 Z" id="ID0.8799208626151085"></path>
            </g>
            <g id="ID0.613494704477489" transform="translate(259.000000, 315.000000)" fill="#FFFFFF">
                <polygon id="ID0.0076875207014381886" points="23.2498356 17.7908787 60.3052097 18.3055367 65.4517895 46.6117252 10.3833862 46.6117252"></polygon>
                <path d="M12.1846891,22.4228004 C15.5212168,22.4228004 18.5448324,23.7778949 20.7347021,25.9672499 C22.9240571,28.1571196 24.2791515,31.1807352 24.2791515,34.5172628 C24.2791515,37.8537905 22.9240571,40.8774061 20.7347021,43.0672758 C18.5448324,45.2566308 15.5212168,46.6117252 12.1846891,46.6117252 C8.84816149,46.6117252 5.82454589,45.2566308 3.63467621,43.0672758 C1.44532119,40.8774061 0.0902267456,37.8537905 0.0902267456,34.5172628 C0.0902267456,31.1807352 1.44532119,28.1571196 3.63467621,25.9672499 C5.82454589,23.7778949 8.84816149,22.4228004 12.1846891,22.4228004 Z" id="ID0.8799208626151085"></path>
                <path d="M67.0346891,22.7228004 C70.3712168,22.7228004 73.3948324,24.0778949 75.5847021,26.2672499 C77.7740571,28.4571196 79.1291515,31.4807352 79.1291515,34.8172628 C79.1291515,38.1537905 77.7740571,41.1774061 75.5847021,43.3672758 C73.3948324,45.5566308 70.3712168,46.9117252 67.0346891,46.9117252 C63.6981615,46.9117252 60.6745459,45.5566308 58.4846762,43.3672758 C56.2953212,41.1774061 54.9402267,38.1537905 54.9402267,34.8172628 C54.9402267,31.4807352 56.2953212,28.4571196 58.4846762,26.2672499 C60.6745459,24.0778949 63.6981615,22.7228004 67.0346891,22.7228004 Z" id="ID0.8799208626151085"></path>
                <path d="M56.2346891,8.27280045 C59.5712168,8.27280045 62.5948324,9.62789489 64.7847021,11.8172499 C66.9740571,14.0071196 68.3291515,17.0307352 68.3291515,20.3672628 C68.3291515,23.7037905 66.9740571,26.7274061 64.7847021,28.9172758 C62.5948324,31.1066308 59.5712168,32.4617252 56.2346891,32.4617252 C52.8981615,32.4617252 49.8745459,31.1066308 47.6846762,28.9172758 C45.4953212,26.7274061 44.1402267,23.7037905 44.1402267,20.3672628 C44.1402267,17.0307352 45.4953212,14.0071196 47.6846762,11.8172499 C49.8745459,9.62789489 52.8981615,8.27280045 56.2346891,8.27280045 Z" id="ID0.8799208626151085"></path>
                <path d="M39.6846891,0.0728004456 C43.0212168,0.0728004456 46.0448324,1.42789489 48.2347021,3.61724991 C50.4240571,5.80711959 51.7791515,8.83073519 51.7791515,12.1672628 C51.7791515,15.5037905 50.4240571,18.5274061 48.2347021,20.7172758 C46.0448324,22.9066308 43.0212168,24.2617252 39.6846891,24.2617252 C36.3481615,24.2617252 33.3245459,22.9066308 31.1346762,20.7172758 C28.9453212,18.5274061 27.5902267,15.5037905 27.5902267,12.1672628 C27.5902267,8.83073519 28.9453212,5.80711959 31.1346762,3.61724991 C33.3245459,1.42789489 36.3481615,0.0728004456 39.6846891,0.0728004456 Z" id="ID0.8799208626151085"></path>
                <path d="M21.6846891,8.82280045 C25.0212168,8.82280045 28.0448324,10.1778949 30.2347021,12.3672499 C32.4240571,14.5571196 33.7791515,17.5807352 33.7791515,20.9172628 C33.7791515,24.2537905 32.4240571,27.2774061 30.2347021,29.4672758 C28.0448324,31.6566308 25.0212168,33.0117252 21.6846891,33.0117252 C18.3481615,33.0117252 15.3245459,31.6566308 13.1346762,29.4672758 C10.9453212,27.2774061 9.59022675,24.2537905 9.59022675,20.9172628 C9.59022675,17.5807352 10.9453212,14.5571196 13.1346762,12.3672499 C15.3245459,10.1778949 18.3481615,8.82280045 21.6846891,8.82280045 Z" id="ID0.8799208626151085"></path>
            </g>
            <g id="ID0.613494704477489" transform="translate(384.000000, 267.000000)" fill="#FFFFFF">
                <polygon id="ID0.0076875207014381886" points="17.7969066 13.8423733 45.6996266 14.2299111 49.5750043 35.5444888 8.10846214 35.5444888"></polygon>
                <path d="M9.46484436,17.3302133 C11.9772518,17.3302133 14.2540362,18.3506003 15.9030095,19.999186 C17.5515952,21.6481592 18.5719821,23.9249436 18.5719821,26.4373511 C18.5719821,28.9497585 17.5515952,31.2265429 15.9030095,32.8755162 C14.2540362,34.5241019 11.9772518,35.5444888 9.46484436,35.5444888 C6.95243695,35.5444888 4.67565251,34.5241019 3.02667927,32.8755162 C1.37809356,31.2265429 0.357706594,28.9497585 0.357706594,26.4373511 C0.357706594,23.9249436 1.37809356,21.6481592 3.02667927,19.999186 C4.67565251,18.3506003 6.95243695,17.3302133 9.46484436,17.3302133 Z" id="ID0.8799208626151085"></path>
                <path d="M50.7648444,17.5802133 C53.2772518,17.5802133 55.5540362,18.6006003 57.2030095,20.249186 C58.8515952,21.8981592 59.8719821,24.1749436 59.8719821,26.6873511 C59.8719821,29.1997585 58.8515952,31.4765429 57.2030095,33.1255162 C55.5540362,34.7741019 53.2772518,35.7944888 50.7648444,35.7944888 C48.252437,35.7944888 45.9756525,34.7741019 44.3266793,33.1255162 C42.6780936,31.4765429 41.6577066,29.1997585 41.6577066,26.6873511 C41.6577066,24.1749436 42.6780936,21.8981592 44.3266793,20.249186 C45.9756525,18.6006003 48.252437,17.5802133 50.7648444,17.5802133 Z" id="ID0.8799208626151085"></path>
                <path d="M42.6648444,6.68021328 C45.1772518,6.68021328 47.4540362,7.70060025 49.1030095,9.34918596 C50.7515952,10.9981592 51.7719821,13.2749436 51.7719821,15.7873511 C51.7719821,18.2997585 50.7515952,20.5765429 49.1030095,22.2255162 C47.4540362,23.8741019 45.1772518,24.8944888 42.6648444,24.8944888 C40.152437,24.8944888 37.8756525,23.8741019 36.2266793,22.2255162 C34.5780936,20.5765429 33.5577066,18.2997585 33.5577066,15.7873511 C33.5577066,13.2749436 34.5780936,10.9981592 36.2266793,9.34918596 C37.8756525,7.70060025 40.152437,6.68021328 42.6648444,6.68021328 Z" id="ID0.8799208626151085"></path>
                <path d="M30.2148444,0.480213284 C32.7272518,0.480213284 35.0040362,1.50060025 36.6530095,3.14918596 C38.3015952,4.7981592 39.3219821,7.07494364 39.3219821,9.58735105 C39.3219821,12.0997585 38.3015952,14.3765429 36.6530095,16.0255162 C35.0040362,17.6741019 32.7272518,18.6944888 30.2148444,18.6944888 C27.702437,18.6944888 25.4256525,17.6741019 23.7766793,16.0255162 C22.1280936,14.3765429 21.1077066,12.0997585 21.1077066,9.58735105 C21.1077066,7.07494364 22.1280936,4.7981592 23.7766793,3.14918596 C25.4256525,1.50060025 27.702437,0.480213284 30.2148444,0.480213284 Z" id="ID0.8799208626151085"></path>
                <path d="M16.6648444,7.08021328 C19.1772518,7.08021328 21.4540362,8.10060025 23.1030095,9.74918596 C24.7515952,11.3981592 25.7719821,13.6749436 25.7719821,16.1873511 C25.7719821,18.6997585 24.7515952,20.9765429 23.1030095,22.6255162 C21.4540362,24.2741019 19.1772518,25.2944888 16.6648444,25.2944888 C14.152437,25.2944888 11.8756525,24.2741019 10.2266793,22.6255162 C8.57809356,20.9765429 7.55770659,18.6997585 7.55770659,16.1873511 C7.55770659,13.6749436 8.57809356,11.3981592 10.2266793,9.74918596 C11.8756525,8.10060025 14.152437,7.08021328 16.6648444,7.08021328 Z" id="ID0.8799208626151085"></path>
            </g>
            <g id="ID0.613494704477489" transform="translate(376.000000, 130.000000)" fill="#FFFFFF">
                <polygon id="ID0.0076875207014381886" points="17.8969066 14.2423733 45.7996266 14.6299111 49.6750043 35.9444888 8.20846214 35.9444888"></polygon>
                <path d="M9.56484436,17.7302133 C12.0772518,17.7302133 14.3540362,18.7506003 16.0030095,20.399186 C17.6515952,22.0481592 18.6719821,24.3249436 18.6719821,26.8373511 C18.6719821,29.3497585 17.6515952,31.6265429 16.0030095,33.2755162 C14.3540362,34.9241019 12.0772518,35.9444888 9.56484436,35.9444888 C7.05243695,35.9444888 4.77565251,34.9241019 3.12667927,33.2755162 C1.47809356,31.6265429 0.457706594,29.3497585 0.457706594,26.8373511 C0.457706594,24.3249436 1.47809356,22.0481592 3.12667927,20.399186 C4.77565251,18.7506003 7.05243695,17.7302133 9.56484436,17.7302133 Z" id="ID0.8799208626151085"></path>
                <path d="M50.8648444,17.9802133 C53.3772518,17.9802133 55.6540362,19.0006003 57.3030095,20.649186 C58.9515952,22.2981592 59.9719821,24.5749436 59.9719821,27.0873511 C59.9719821,29.5997585 58.9515952,31.8765429 57.3030095,33.5255162 C55.6540362,35.1741019 53.3772518,36.1944888 50.8648444,36.1944888 C48.352437,36.1944888 46.0756525,35.1741019 44.4266793,33.5255162 C42.7780936,31.8765429 41.7577066,29.5997585 41.7577066,27.0873511 C41.7577066,24.5749436 42.7780936,22.2981592 44.4266793,20.649186 C46.0756525,19.0006003 48.352437,17.9802133 50.8648444,17.9802133 Z" id="ID0.8799208626151085"></path>
                <path d="M42.7648444,7.08021328 C45.2772518,7.08021328 47.5540362,8.10060025 49.2030095,9.74918596 C50.8515952,11.3981592 51.8719821,13.6749436 51.8719821,16.1873511 C51.8719821,18.6997585 50.8515952,20.9765429 49.2030095,22.6255162 C47.5540362,24.2741019 45.2772518,25.2944888 42.7648444,25.2944888 C40.252437,25.2944888 37.9756525,24.2741019 36.3266793,22.6255162 C34.6780936,20.9765429 33.6577066,18.6997585 33.6577066,16.1873511 C33.6577066,13.6749436 34.6780936,11.3981592 36.3266793,9.74918596 C37.9756525,8.10060025 40.252437,7.08021328 42.7648444,7.08021328 Z" id="ID0.8799208626151085"></path>
                <path d="M30.3148444,0.880213284 C32.8272518,0.880213284 35.1040362,1.90060025 36.7530095,3.54918596 C38.4015952,5.1981592 39.4219821,7.47494364 39.4219821,9.98735105 C39.4219821,12.4997585 38.4015952,14.7765429 36.7530095,16.4255162 C35.1040362,18.0741019 32.8272518,19.0944888 30.3148444,19.0944888 C27.802437,19.0944888 25.5256525,18.0741019 23.8766793,16.4255162 C22.2280936,14.7765429 21.2077066,12.4997585 21.2077066,9.98735105 C21.2077066,7.47494364 22.2280936,5.1981592 23.8766793,3.54918596 C25.5256525,1.90060025 27.802437,0.880213284 30.3148444,0.880213284 Z" id="ID0.8799208626151085"></path>
                <path d="M16.7648444,7.48021328 C19.2772518,7.48021328 21.5540362,8.50060025 23.2030095,10.149186 C24.8515952,11.7981592 25.8719821,14.0749436 25.8719821,16.5873511 C25.8719821,19.0997585 24.8515952,21.3765429 23.2030095,23.0255162 C21.5540362,24.6741019 19.2772518,25.6944888 16.7648444,25.6944888 C14.252437,25.6944888 11.9756525,24.6741019 10.3266793,23.0255162 C8.67809356,21.3765429 7.65770659,19.0997585 7.65770659,16.5873511 C7.65770659,14.0749436 8.67809356,11.7981592 10.3266793,10.149186 C11.9756525,8.50060025 14.252437,7.48021328 16.7648444,7.48021328 Z" id="ID0.8799208626151085"></path>
            </g>
            <g id="ID0.613494704477489" transform="translate(149.000000, 369.000000)" fill="#FFFFFF">
                <polygon id="ID0.0076875207014381886" points="17.4969066 13.8423733 45.3996266 14.2299111 49.2750043 35.5444888 7.80846214 35.5444888"></polygon>
                <path d="M9.16484436,17.3302133 C11.6772518,17.3302133 13.9540362,18.3506003 15.6030095,19.999186 C17.2515952,21.6481592 18.2719821,23.9249436 18.2719821,26.4373511 C18.2719821,28.9497585 17.2515952,31.2265429 15.6030095,32.8755162 C13.9540362,34.5241019 11.6772518,35.5444888 9.16484436,35.5444888 C6.65243695,35.5444888 4.37565251,34.5241019 2.72667927,32.8755162 C1.07809356,31.2265429 0.0577065945,28.9497585 0.0577065945,26.4373511 C0.0577065945,23.9249436 1.07809356,21.6481592 2.72667927,19.999186 C4.37565251,18.3506003 6.65243695,17.3302133 9.16484436,17.3302133 Z" id="ID0.8799208626151085"></path>
                <path d="M50.4648444,17.5802133 C52.9772518,17.5802133 55.2540362,18.6006003 56.9030095,20.249186 C58.5515952,21.8981592 59.5719821,24.1749436 59.5719821,26.6873511 C59.5719821,29.1997585 58.5515952,31.4765429 56.9030095,33.1255162 C55.2540362,34.7741019 52.9772518,35.7944888 50.4648444,35.7944888 C47.952437,35.7944888 45.6756525,34.7741019 44.0266793,33.1255162 C42.3780936,31.4765429 41.3577066,29.1997585 41.3577066,26.6873511 C41.3577066,24.1749436 42.3780936,21.8981592 44.0266793,20.249186 C45.6756525,18.6006003 47.952437,17.5802133 50.4648444,17.5802133 Z" id="ID0.8799208626151085"></path>
                <path d="M42.3648444,6.68021328 C44.8772518,6.68021328 47.1540362,7.70060025 48.8030095,9.34918596 C50.4515952,10.9981592 51.4719821,13.2749436 51.4719821,15.7873511 C51.4719821,18.2997585 50.4515952,20.5765429 48.8030095,22.2255162 C47.1540362,23.8741019 44.8772518,24.8944888 42.3648444,24.8944888 C39.852437,24.8944888 37.5756525,23.8741019 35.9266793,22.2255162 C34.2780936,20.5765429 33.2577066,18.2997585 33.2577066,15.7873511 C33.2577066,13.2749436 34.2780936,10.9981592 35.9266793,9.34918596 C37.5756525,7.70060025 39.852437,6.68021328 42.3648444,6.68021328 Z" id="ID0.8799208626151085"></path>
                <path d="M29.9148444,0.480213284 C32.4272518,0.480213284 34.7040362,1.50060025 36.3530095,3.14918596 C38.0015952,4.7981592 39.0219821,7.07494364 39.0219821,9.58735105 C39.0219821,12.0997585 38.0015952,14.3765429 36.3530095,16.0255162 C34.7040362,17.6741019 32.4272518,18.6944888 29.9148444,18.6944888 C27.402437,18.6944888 25.1256525,17.6741019 23.4766793,16.0255162 C21.8280936,14.3765429 20.8077066,12.0997585 20.8077066,9.58735105 C20.8077066,7.07494364 21.8280936,4.7981592 23.4766793,3.14918596 C25.1256525,1.50060025 27.402437,0.480213284 29.9148444,0.480213284 Z" id="ID0.8799208626151085"></path>
                <path d="M16.3648444,7.08021328 C18.8772518,7.08021328 21.1540362,8.10060025 22.8030095,9.74918596 C24.4515952,11.3981592 25.4719821,13.6749436 25.4719821,16.1873511 C25.4719821,18.6997585 24.4515952,20.9765429 22.8030095,22.6255162 C21.1540362,24.2741019 18.8772518,25.2944888 16.3648444,25.2944888 C13.852437,25.2944888 11.5756525,24.2741019 9.92667927,22.6255162 C8.27809356,20.9765429 7.25770659,18.6997585 7.25770659,16.1873511 C7.25770659,13.6749436 8.27809356,11.3981592 9.92667927,9.74918596 C11.5756525,8.10060025 13.852437,7.08021328 16.3648444,7.08021328 Z" id="ID0.8799208626151085"></path>
            </g>
            <g id="ID0.613494704477489" transform="translate(151.000000, 6.000000)" fill="#FFFFFF">
                <polygon id="ID0.0076875207014381886" points="17.7969066 13.6423733 45.6996266 14.0299111 49.5750043 35.3444888 8.10846214 35.3444888"></polygon>
                <path d="M9.46484436,17.1302133 C11.9772518,17.1302133 14.2540362,18.1506003 15.9030095,19.799186 C17.5515952,21.4481592 18.5719821,23.7249436 18.5719821,26.2373511 C18.5719821,28.7497585 17.5515952,31.0265429 15.9030095,32.6755162 C14.2540362,34.3241019 11.9772518,35.3444888 9.46484436,35.3444888 C6.95243695,35.3444888 4.67565251,34.3241019 3.02667927,32.6755162 C1.37809356,31.0265429 0.357706594,28.7497585 0.357706594,26.2373511 C0.357706594,23.7249436 1.37809356,21.4481592 3.02667927,19.799186 C4.67565251,18.1506003 6.95243695,17.1302133 9.46484436,17.1302133 Z" id="ID0.8799208626151085"></path>
                <path d="M50.7648444,17.3802133 C53.2772518,17.3802133 55.5540362,18.4006003 57.2030095,20.049186 C58.8515952,21.6981592 59.8719821,23.9749436 59.8719821,26.4873511 C59.8719821,28.9997585 58.8515952,31.2765429 57.2030095,32.9255162 C55.5540362,34.5741019 53.2772518,35.5944888 50.7648444,35.5944888 C48.252437,35.5944888 45.9756525,34.5741019 44.3266793,32.9255162 C42.6780936,31.2765429 41.6577066,28.9997585 41.6577066,26.4873511 C41.6577066,23.9749436 42.6780936,21.6981592 44.3266793,20.049186 C45.9756525,18.4006003 48.252437,17.3802133 50.7648444,17.3802133 Z" id="ID0.8799208626151085"></path>
                <path d="M42.6648444,6.48021328 C45.1772518,6.48021328 47.4540362,7.50060025 49.1030095,9.14918596 C50.7515952,10.7981592 51.7719821,13.0749436 51.7719821,15.5873511 C51.7719821,18.0997585 50.7515952,20.3765429 49.1030095,22.0255162 C47.4540362,23.6741019 45.1772518,24.6944888 42.6648444,24.6944888 C40.152437,24.6944888 37.8756525,23.6741019 36.2266793,22.0255162 C34.5780936,20.3765429 33.5577066,18.0997585 33.5577066,15.5873511 C33.5577066,13.0749436 34.5780936,10.7981592 36.2266793,9.14918596 C37.8756525,7.50060025 40.152437,6.48021328 42.6648444,6.48021328 Z" id="ID0.8799208626151085"></path>
                <path d="M30.2148444,0.280213284 C32.7272518,0.280213284 35.0040362,1.30060025 36.6530095,2.94918596 C38.3015952,4.5981592 39.3219821,6.87494364 39.3219821,9.38735105 C39.3219821,11.8997585 38.3015952,14.1765429 36.6530095,15.8255162 C35.0040362,17.4741019 32.7272518,18.4944888 30.2148444,18.4944888 C27.702437,18.4944888 25.4256525,17.4741019 23.7766793,15.8255162 C22.1280936,14.1765429 21.1077066,11.8997585 21.1077066,9.38735105 C21.1077066,6.87494364 22.1280936,4.5981592 23.7766793,2.94918596 C25.4256525,1.30060025 27.702437,0.280213284 30.2148444,0.280213284 Z" id="ID0.8799208626151085"></path>
                <path d="M16.6648444,6.93021328 C19.1772518,6.93021328 21.4540362,7.95060025 23.1030095,9.59918596 C24.7515952,11.2481592 25.7719821,13.5249436 25.7719821,16.0373511 C25.7719821,18.5497585 24.7515952,20.8265429 23.1030095,22.4755162 C21.4540362,24.1241019 19.1772518,25.1444888 16.6648444,25.1444888 C14.152437,25.1444888 11.8756525,24.1241019 10.2266793,22.4755162 C8.57809356,20.8265429 7.55770659,18.5497585 7.55770659,16.0373511 C7.55770659,13.5249436 8.57809356,11.2481592 10.2266793,9.59918596 C11.8756525,7.95060025 14.152437,6.93021328 16.6648444,6.93021328 Z" id="ID0.8799208626151085"></path>
            </g>
            <g id="ID0.613494704477489" transform="translate(380.000000, 0.000000)" fill="#FFFFFF">
                <polygon id="ID0.0076875207014381886" points="17.7969066 14.2923733 45.6996266 14.6799111 49.5750043 35.9944888 8.10846214 35.9944888"></polygon>
                <path d="M9.46484436,17.7802133 C11.9772518,17.7802133 14.2540362,18.8006003 15.9030095,20.449186 C17.5515952,22.0981592 18.5719821,24.3749436 18.5719821,26.8873511 C18.5719821,29.3997585 17.5515952,31.6765429 15.9030095,33.3255162 C14.2540362,34.9741019 11.9772518,35.9944888 9.46484436,35.9944888 C6.95243695,35.9944888 4.67565251,34.9741019 3.02667927,33.3255162 C1.37809356,31.6765429 0.357706594,29.3997585 0.357706594,26.8873511 C0.357706594,24.3749436 1.37809356,22.0981592 3.02667927,20.449186 C4.67565251,18.8006003 6.95243695,17.7802133 9.46484436,17.7802133 Z" id="ID0.8799208626151085"></path>
                <path d="M50.7648444,18.0302133 C53.2772518,18.0302133 55.5540362,19.0506003 57.2030095,20.699186 C58.8515952,22.3481592 59.8719821,24.6249436 59.8719821,27.1373511 C59.8719821,29.6497585 58.8515952,31.9265429 57.2030095,33.5755162 C55.5540362,35.2241019 53.2772518,36.2444888 50.7648444,36.2444888 C48.252437,36.2444888 45.9756525,35.2241019 44.3266793,33.5755162 C42.6780936,31.9265429 41.6577066,29.6497585 41.6577066,27.1373511 C41.6577066,24.6249436 42.6780936,22.3481592 44.3266793,20.699186 C45.9756525,19.0506003 48.252437,18.0302133 50.7648444,18.0302133 Z" id="ID0.8799208626151085"></path>
                <path d="M42.6648444,7.18021328 C45.1772518,7.18021328 47.4540362,8.20060025 49.1030095,9.84918596 C50.7515952,11.4981592 51.7719821,13.7749436 51.7719821,16.2873511 C51.7719821,18.7997585 50.7515952,21.0765429 49.1030095,22.7255162 C47.4540362,24.3741019 45.1772518,25.3944888 42.6648444,25.3944888 C40.152437,25.3944888 37.8756525,24.3741019 36.2266793,22.7255162 C34.5780936,21.0765429 33.5577066,18.7997585 33.5577066,16.2873511 C33.5577066,13.7749436 34.5780936,11.4981592 36.2266793,9.84918596 C37.8756525,8.20060025 40.152437,7.18021328 42.6648444,7.18021328 Z" id="ID0.8799208626151085"></path>
                <path d="M30.2148444,0.930213284 C32.7272518,0.930213284 35.0040362,1.95060025 36.6530095,3.59918596 C38.3015952,5.2481592 39.3219821,7.52494364 39.3219821,10.0373511 C39.3219821,12.5497585 38.3015952,14.8265429 36.6530095,16.4755162 C35.0040362,18.1241019 32.7272518,19.1444888 30.2148444,19.1444888 C27.702437,19.1444888 25.4256525,18.1241019 23.7766793,16.4755162 C22.1280936,14.8265429 21.1077066,12.5497585 21.1077066,10.0373511 C21.1077066,7.52494364 22.1280936,5.2481592 23.7766793,3.59918596 C25.4256525,1.95060025 27.702437,0.930213284 30.2148444,0.930213284 Z" id="ID0.8799208626151085"></path>
                <path d="M16.6648444,7.53021328 C19.1772518,7.53021328 21.4540362,8.55060025 23.1030095,10.199186 C24.7515952,11.8481592 25.7719821,14.1249436 25.7719821,16.6373511 C25.7719821,19.1497585 24.7515952,21.4265429 23.1030095,23.0755162 C21.4540362,24.7241019 19.1772518,25.7444888 16.6648444,25.7444888 C14.152437,25.7444888 11.8756525,24.7241019 10.2266793,23.0755162 C8.57809356,21.4265429 7.55770659,19.1497585 7.55770659,16.6373511 C7.55770659,14.1249436 8.57809356,11.8481592 10.2266793,10.199186 C11.8756525,8.55060025 14.152437,7.53021328 16.6648444,7.53021328 Z" id="ID0.8799208626151085"></path>
            </g>
            <g id="ID0.613494704477489" transform="translate(387.000000, 370.000000)" fill="#FFFFFF">
                <polygon id="ID0.0076875207014381886" points="17.4969066 13.4923733 45.3996266 13.8799111 49.2750043 35.1944888 7.80846214 35.1944888"></polygon>
                <path d="M9.16484436,16.9802133 C11.6772518,16.9802133 13.9540362,18.0006003 15.6030095,19.649186 C17.2515952,21.2981592 18.2719821,23.5749436 18.2719821,26.0873511 C18.2719821,28.5997585 17.2515952,30.8765429 15.6030095,32.5255162 C13.9540362,34.1741019 11.6772518,35.1944888 9.16484436,35.1944888 C6.65243695,35.1944888 4.37565251,34.1741019 2.72667927,32.5255162 C1.07809356,30.8765429 0.0577065945,28.5997585 0.0577065945,26.0873511 C0.0577065945,23.5749436 1.07809356,21.2981592 2.72667927,19.649186 C4.37565251,18.0006003 6.65243695,16.9802133 9.16484436,16.9802133 Z" id="ID0.8799208626151085"></path>
                <path d="M50.4648444,17.2302133 C52.9772518,17.2302133 55.2540362,18.2506003 56.9030095,19.899186 C58.5515952,21.5481592 59.5719821,23.8249436 59.5719821,26.3373511 C59.5719821,28.8497585 58.5515952,31.1265429 56.9030095,32.7755162 C55.2540362,34.4241019 52.9772518,35.4444888 50.4648444,35.4444888 C47.952437,35.4444888 45.6756525,34.4241019 44.0266793,32.7755162 C42.3780936,31.1265429 41.3577066,28.8497585 41.3577066,26.3373511 C41.3577066,23.8249436 42.3780936,21.5481592 44.0266793,19.899186 C45.6756525,18.2506003 47.952437,17.2302133 50.4648444,17.2302133 Z" id="ID0.8799208626151085"></path>
                <path d="M42.3648444,6.33021328 C44.8772518,6.33021328 47.1540362,7.35060025 48.8030095,8.99918596 C50.4515952,10.6481592 51.4719821,12.9249436 51.4719821,15.4373511 C51.4719821,17.9497585 50.4515952,20.2265429 48.8030095,21.8755162 C47.1540362,23.5241019 44.8772518,24.5444888 42.3648444,24.5444888 C39.852437,24.5444888 37.5756525,23.5241019 35.9266793,21.8755162 C34.2780936,20.2265429 33.2577066,17.9497585 33.2577066,15.4373511 C33.2577066,12.9249436 34.2780936,10.6481592 35.9266793,8.99918596 C37.5756525,7.35060025 39.852437,6.33021328 42.3648444,6.33021328 Z" id="ID0.8799208626151085"></path>
                <path d="M29.9148444,0.130213284 C32.4272518,0.130213284 34.7040362,1.15060025 36.3530095,2.79918596 C38.0015952,4.4481592 39.0219821,6.72494364 39.0219821,9.23735105 C39.0219821,11.7497585 38.0015952,14.0265429 36.3530095,15.6755162 C34.7040362,17.3241019 32.4272518,18.3444888 29.9148444,18.3444888 C27.402437,18.3444888 25.1256525,17.3241019 23.4766793,15.6755162 C21.8280936,14.0265429 20.8077066,11.7497585 20.8077066,9.23735105 C20.8077066,6.72494364 21.8280936,4.4481592 23.4766793,2.79918596 C25.1256525,1.15060025 27.402437,0.130213284 29.9148444,0.130213284 Z" id="ID0.8799208626151085"></path>
                <path d="M16.3648444,6.73021328 C18.8772518,6.73021328 21.1540362,7.75060025 22.8030095,9.39918596 C24.4515952,11.0481592 25.4719821,13.3249436 25.4719821,15.8373511 C25.4719821,18.3497585 24.4515952,20.6265429 22.8030095,22.2755162 C21.1540362,23.9241019 18.8772518,24.9444888 16.3648444,24.9444888 C13.852437,24.9444888 11.5756525,23.9241019 9.92667927,22.2755162 C8.27809356,20.6265429 7.25770659,18.3497585 7.25770659,15.8373511 C7.25770659,13.3249436 8.27809356,11.0481592 9.92667927,9.39918596 C11.5756525,7.75060025 13.852437,6.73021328 16.3648444,6.73021328 Z" id="ID0.8799208626151085"></path>
            </g>
        </g>
    </g>
</svg>