<?xml version="1.0" encoding="UTF-8"?>
<svg width="564px" height="84px" viewBox="0 0 564 84" version="1.1" xmlns="http://www.w3.org/2000/svg" xmlns:xlink="http://www.w3.org/1999/xlink">
    <!-- Generator: Sketch 49.2 (51160) - http://www.bohemiancoding.com/sketch -->
    <title>jsconf-logo-full</title>
    <desc>Created with Sketch.</desc>
    <defs></defs>
    <g id="Page-1" stroke="none" stroke-width="1" fill="none" fill-rule="evenodd">
        <g id="jsconf-logo-full" fill-rule="nonzero">
            <g id="Group" transform="translate(108.000000, 7.000000)" fill="#303F62">
                <path d="M24.93,46.05 C24.93,57.79 24.83,63.56 15.88,72.41 C12.22,76.07 10.2,77 8.09,77 C3.973226,76.9030345 0.602554497,73.696786 0.3,69.59 C0.3,66.53 3.09,65.17 5.2,62.96 C9.73,58.43 9.73,52.96 9.73,45.83 L9.73,9.75 C9.73,7.06 9.73,5.23 10.88,3.69 C12.03,2.15 14.06,1.48 17.33,1.48 C20.6,1.48 22.61,2.15 23.77,3.69 C24.93,5.23 24.93,7.06 24.93,9.75 L24.93,46.05 Z" id="Shape"></path>
                <path d="M66.54,30.08 C71.64,33.45 76.06,38.16 76.06,46.24 C76.06,58.49 65.87,65.29 53.65,65.29 C49.1244391,65.3378333 44.6475789,64.3528556 40.56,62.41 C37.5,60.87 34.98,58.85 34.98,55.48 C34.98,52.3 37.28,48.17 41.04,48.17 C44.8,48.17 47.88,52.61 53.75,52.61 C57.98,52.61 60.86,50.4 60.86,46.93 C60.86,43.18 57.4,41.06 53.16,38.85 C45.83,35.08 35.88,30.56 35.88,19.21 C35.88,8.05 45.5,0.94 57.44,0.94 C65.9,0.94 74.95,4.59 74.95,10.26 C74.95,13.33 72.25,17.26 68.59,17.26 C65.13,17.26 62.05,13.7 57.11,13.7 C53.36,13.7 51.05,15.7 51.05,18.29 C51.06,23.34 59.72,25.56 66.54,30.08 Z" id="Shape"></path>
                <path d="M114.11,51.63 C116.61834,51.632382 119.102483,51.1396314 121.42,50.18 C124.31,49.03 126.14,47.68 128.16,47.68 C132.1,47.68 134.22,52.4 134.22,55.28 C134.22,57.68 132.69,59.7 129.89,61.4 C125.46,64.1 118.89,65.34 113.24,65.34 C95.64,65.34 81.78,53.51 81.78,33.02 C81.78,11.47 96.98,0.79 113.52,0.79 C119.59,0.79 125.94,2.24 129.88,4.62 C132.88,6.45 134.21,8.44 134.21,10.87 C134.21,13.87 132.21,18.57 128.15,18.57 C126.03,18.57 124.01,17.32 120.93,16.07 C118.523722,15.0593372 115.939906,14.5391743 113.33,14.54 C104.87,14.54 97.17,20.02 97.17,32.72 C97.18,45.86 105.26,51.63 114.11,51.63 Z" id="Shape"></path>
                <path d="M172.16,0.64 C192.37,0.64 205.07,14.41 205.07,32.96 C205.07,51.82 191.98,65.57 171.88,65.57 C151.78,65.57 139,51.8 139,33.25 C139,14.4 152.06,0.64 172.16,0.64 Z M172.07,52.64 C182.85,52.64 189.67,45.52 189.67,33.21 C189.67,20.9 182.75,13.65 172,13.65 C161.25,13.65 154.4,20.77 154.4,33.08 C154.4,45.39 161.3,52.61 172.07,52.61 L172.07,52.64 Z" id="Shape"></path>
                <path d="M229.94,56.54 C229.94,59.23 229.94,60.96 228.79,62.54 C227.64,64.12 225.79,64.83 222.67,64.83 C219.55,64.83 217.57,63.97 216.41,62.54 C215.25,61.11 215.26,59.17 215.26,56.54 L215.26,7.37 C215.26,3.71 217.85,1.37 223.26,1.37 C228.84,1.37 230.96,3.77 233.46,7.05 L258.22,39.6 L258.22,9.75 C258.22,7.06 258.22,5.33 259.38,3.75 C260.54,2.17 262.38,1.45 265.5,1.45 C268.62,1.45 270.6,2.32 271.75,3.75 C272.9,5.18 272.91,7.02 272.91,9.75 L272.91,59 C272.91,63 270.31,65.06 265.91,65.06 C261.32,65.06 259.09,62.95 256.48,59.58 L229.97,25.58 L229.94,56.54 Z" id="Shape"></path>
                <path d="M301.91,56.54 C301.91,59.13 301.91,60.96 300.76,62.54 C299.61,64.12 297.7,64.83 294.51,64.83 C291.32,64.83 289.31,64.07 288.15,62.54 C286.99,61.01 287,59.17 287,56.54 L287,9.09 C287,4.09 289,2.16 294.12,2.16 L316.31,2.16 C318.9,2.16 320.64,2.16 322.18,3.22 C323.72,4.28 324.48,6.01 324.48,8.9 C324.48,11.79 323.61,13.61 322.18,14.67 C320.75,15.73 318.91,15.67 316.31,15.67 L301.91,15.67 L301.91,26.9 L313.65,26.9 C316.25,26.9 317.99,26.9 319.52,27.96 C321.05,29.02 321.82,30.65 321.82,33.54 C321.82,36.43 320.95,38.13 319.52,39.22 C318.09,40.31 316.26,40.27 313.65,40.27 L301.91,40.27 L301.91,56.54 Z" id="Shape"></path>
                <path d="M332,65.1 C326.81,65.1 323.44,61.73 323.44,56.54 C323.44,51.35 326.82,48 332,48 C337.18,48 340.57,51.47 340.57,56.57 C340.57,61.67 337.21,65.1 332,65.1 Z" id="Shape"></path>
                <path d="M366.64,25.17 L377.13,25.17 C379.72,25.17 381.55,25.17 383,26.17 C384.15,26.93 385.29,28.57 385.29,31.65 C385.29,34.73 384.14,36.36 383,37.13 C381.56,38.13 379.73,38.13 377.14,38.13 L366.65,38.13 L366.65,51.44 L382.72,51.44 C385.32,51.44 387.15,51.44 388.59,52.44 C389.75,53.21 390.89,54.85 390.89,57.92 C390.89,60.99 389.73,62.64 388.59,63.4 C387.15,64.4 385.32,64.4 382.72,64.4 L359.24,64.4 C354.04,64.4 352.12,62.4 352.12,57.28 L352.12,9.3 C352.12,4.1 354.04,2.18 359.24,2.18 L380.79,2.18 C383.38,2.18 385.21,2.18 386.66,3.18 C387.81,3.94 388.95,5.58 388.95,8.66 C388.95,11.74 387.8,13.38 386.66,14.15 C385.22,15.15 383.39,15.15 380.79,15.15 L366.64,15.15 L366.64,25.17 Z" id="Shape"></path>
                <path d="M437.86,48.65 C440.55,45.38 440.65,40.95 440.65,37.49 L440.65,9.75 C440.65,7.06 440.65,5.23 441.8,3.69 C442.95,2.15 444.87,1.48 448.16,1.48 C451.45,1.48 453.35,2.15 454.51,3.69 C455.67,5.23 455.66,7.06 455.66,9.75 L455.66,36.69 C455.66,43.23 455.66,50.69 450.18,57.19 C446,62 439.32,65.46 427.77,65.46 C416.22,65.46 409.58,61.92 405.53,57.2 C400,50.66 400,43.43 400,36.61 L400,9.75 C400,7.06 400,5.23 401.16,3.69 C402.32,2.15 404.33,1.48 407.6,1.48 C410.87,1.48 412.89,2.15 414.04,3.69 C415.19,5.23 415.2,7.06 415.2,9.75 L415.2,37.46 C415.2,40.92 415.2,45.35 417.89,48.61 C419.89,51.02 423.18,52.44 428,52.44 C432.82,52.44 435.84,51.08 437.86,48.65 Z" id="Shape"></path>
            </g>
            <path d="M5.28,82.49 L77.87,82.49 C80.5925088,82.4629084 82.7929084,80.2625088 82.82,77.54 L82.82,5 C82.8201371,2.2579852 80.6118777,0.0274201446 77.87,0 L5.28,0 C2.54203616,0.0328579248 0.339802845,2.26183901 0.34,5 L0.34,77.54 C0.366993815,80.258663 2.56139711,82.4575084 5.28,82.49" id="Shape" fill="#E10079"></path>
            <path d="M37.66,43.31 C41.7090784,39.2826449 48.2509216,39.2826449 52.3,43.31 C54.2209239,41.3304889 56.8616649,40.2133513 59.62,40.2133513 C62.3783351,40.2133513 65.0190761,41.3304889 66.94,43.31 C71.07,47.43 71.07,53.62 66.74,58.15 L52.51,72.38 L38.28,58.15 C33.54,53.82 33.54,47.43 37.66,43.31" id="Shape" fill="#FFFFFF"></path>
        </g>
    </g>
</svg>