<?xml version="1.0" encoding="UTF-8"?>
<svg width="1366px" height="938px" viewBox="0 0 1366 938" version="1.1" xmlns="http://www.w3.org/2000/svg" xmlns:xlink="http://www.w3.org/1999/xlink">
    <!-- Generator: Sketch 49.3 (51167) - http://www.bohemiancoding.com/sketch -->
    <title>pattern</title>
    <desc>Created with Sketch.</desc>
    <defs></defs>
    <g id="Page-1" stroke="none" stroke-width="1" fill="none" fill-rule="evenodd">
        <g id="pattern" fill-rule="nonzero">
            <path d="M1366,0 L1080,0 C1076,6 1072,10 1069,9 C1060,23 1044,39 1041,53 C1032,67 1025,73 1013,97 C1004,111 992,118 985,140 C975,155 967,153 957,183 C948,197 929,207 931,224 L906,263 C890,288 874,308 864,329 C839,367 822,379 824,390 C813,407 819,442 845,431 L902,435 C920,436 956,445 965,439 L1044,445 C1058,446 1076,443 1087,447 C1102,448 1114,444 1133,451 C1149,452 1166,441 1181,454 C1197,455 1225,468 1229,457 C1245,458 1254,476 1277,461 C1293,462 1302,454 1324,464 C1339,465 1346,476 1366,469 L1366,0 Z" id="Shape" fill="#6058C5"></path>
            <path d="M0,485 C10,489 19,492 22,486 C38,490 45,509 70,498 C85,501 95,495 116,508 C131,512 136,526 161,519 L203,529 C230,536 254,528 280,547 C303,553 331,558 341,562 C376,570 402,580 397,575 C418,580 437,556 428,539 C428,539 427,515 407,488 C400,472 400,440 384,431 C375,409 365,392 355,359 C350,346 344,326 339,319 C334,305 316,286 322,277 C317,263 313,241 305,235 C299,221 291,213 288,191 C282,177 280,155 271,147 C265,133 261,111 253,105 C247,91 248,72 236,63 C231,50 233,30 221,24 L210,0 L0,0 L0,485 Z" id="Shape" fill="#FF008F"></path>
            <path d="M595,575 C584,569 563,562 554,562 C540,559 517,554 511,555 L467,548 C450,543 419,544 416,536 C399,532 380,526 365,525 C349,521 331,512 315,515 C298,512 283,507 265,506 C248,503 233,508 215,498 L164,492 C144,489 121,492 103,484 C91,483 79,490 60,477 C44,474 27,483 7,470 L0,469 L0,938 L226,938 C226.200426,937.556006 226.556006,937.200426 227,937 C234,929 248,926 249,914 C257,906 271,897 272,891 C284,879 298,863 309,856 C322,845 341,827 348,825 C361,815 379,811 389,795 C403,786 417,773 431,767 C445,758 459,759 473,738 C488,728 499,722 515,707 C525,700 529,685 546,685 C556,677 562,664 576,661 C585,652 598,646 601,633 C607,622 616,609 614,599 C613,589 601,585 595,575 Z" id="Shape" fill="#DDE4F2"></path>
            <path d="M146,18 C146.241206,19.3546888 146.575328,20.6911777 147,22 C150,37 158,49 158,71 C158.065256,73.3638369 158.400771,75.7124449 159,78 C164,94 172,109 171,128 C171.065256,130.363837 171.400771,132.712445 172,135 C176,153 180,164 184,189 C188,207 189,224 195,239 C195.421731,240.309664 195.755803,241.645952 196,243 L202,272 C203.223934,280.271482 207.73736,287.697778 214.51589,292.593383 C221.294421,297.488988 229.763158,299.438699 238,298 L240,297 C250.892229,294.446937 261.906196,292.444398 273,291 L275,290 C290,287 303,287 324,280 C324.983445,279.618917 325.984594,279.285201 327,279 C345,275 365,269 383,266 C402,262 416,263 439,254 C440.636378,253.529929 442.308701,253.195465 444,253 C461,249 478,248 493,242 C494.308822,241.575328 495.645311,241.241206 497,241 C511,238 524,234 535,227 L537,226 C548,220 554,212 566,205 C568.148796,203.904615 570.162415,202.562202 572,201 L594,176 C594.728246,175.042451 595.396204,174.040515 596,173 C602,163 606,152 610,140 L611,138 C615,127 620,119 618,104 C617.865372,102.336052 617.865372,100.663948 618,99 C618,87 618,69 615,62 C614.634438,61.3499406 614.30071,60.6824854 614,60 C610,48 603,37 600,27 C599.601789,24.5981825 598.930781,22.2496547 598,20 L586,0 L144,0 L146,18 Z" id="Shape" fill="#0024DD"></path>
            <path d="M1366,350 L1354,354 C1343,367 1337,386 1318,387 C1316,391 1314,392 1310,391 C1296,381 1306,368 1307,355 C1303,342 1307,315 1282,335 C1280,336 1276,334 1275,332 C1266,323 1259,329 1252,336 C1247,341 1243,348 1233,346 C1234,329 1233,311 1235,294 C1240,262 1233,230 1227,199 C1224,186 1218,182 1207,193 L1161,236 C1159,245 1153,250 1148,256 C1119,291 1084,317 1051,346 C1044,352 1043,367 1030,365 C1013,398 985,418 958,438 L957,438 C947,459 934,473 913,475 C855,528 789,567 730,618 C707.568473,636.50035 694.40396,663.926418 694,693 L694,771 C700,787 709,794 725,786 C736,781 744,786 742,802 C737.440399,834.195216 740.174427,867.003549 750,898 C753,905 755,912 747,918 L727,938 L878,938 C883,932 890,930 899,929 C899,918 902,911 913,917 C921,905 931,896 941,888 C936,880 931,871 938,861 C943,852 950,864 956,863 C968,843 988,832 998,810 C999,808 1006,809 1010,809 C1011,801 1013,792 1022,791 C1033,774 1045,758 1065,758 C1069,752 1075,753 1080,752 C1081,731 1100,726 1110,716 C1130,696 1145,670 1172,660 C1184,637 1204,626 1223,615 C1226,606 1231,604 1239,606 C1246,598 1250,586 1262,586 L1272,574 C1267,548 1282,558 1292,561 C1296,558 1300,555 1305,560 C1313,571 1324,568 1335,568 C1341,551 1352,539 1366,531 L1366,350 Z" id="Shape" fill="#FF008F"></path>
            <path d="M861,0 L869,11 L883,31 C887,37 892,38 896,49 C901,55 909,63 909,67 L922,83 C926,89 934,92 933,99 C940,108 945,118 952,124 C962,138 973,147 969,147 C976,156 985,158 997,159 C1007,159 1013,151 1022,142 C1022,142 1033,136 1034,119 L1048,93 C1051,88 1059,83 1056,77 C1059,71 1061,64 1065,60 L1075,42 L1085,23 L1095,3 L1096,0 L861,0 Z M414,490 C409,491 405,490 401,488 C396.333333,493.333333 393.333333,492.666667 392,486 C387,486 384,483 381,480 C377,483 373,490 369,481 C365,479 363,474 357,474 C353,479 350,477 348,472 C344,476 337,476 335,472 C332,467 336,460 340,457 C350,450 357,440 366,433 C364,430 362,428 358,428 C349,429 340,425 332,422 L311,417 C299,414 286,416 275,410 L250,434 C240.406952,443.140031 227.063329,447.217249 214,445 C178,440 142,429 106,425 C96,427 87,427 79,421 C74,425 68,423 63,422 C52,421 41,422 30,418 C27,413 22,417 17,417 L0,414 L0,512 C6,515 3,521 2,526 C8,521 12,521 16,527 C19,525 21,526 24,526 C30,520 35,524 40,528 C43,526 46,527 48,530 C55,531 63,528 69,534 C73,527 77,529 80,535 C83,537 86,534 89,535 L92,537 C99,533 105,527 114,526 C122,525 122,528 120,534 C119.175245,537.108581 117.43282,539.89646 115,542 C112,545 111,548 115,551 L121,557 C129,552 139,554 149,562 C153,565 158,566 163,566 L203,568 L231,571 C248,570 263,574 279,578 C291,573 303,574 313,581 C318.725467,579.645506 324.745213,580.353711 330,583 C339,578 348,578 356,583 C363,583 369,579 376,582 C377,573 382,569 391,569 C395,566 394,557 403,560 C404,557 405,553 410,551 C413,544 416,538 406,533 C402,530 404,526 407,522 C409.797604,518.80421 412.80421,515.797604 416,513 C421,509 423,504 420,497 C415,497 416,493 414,490 Z" id="Shape" fill="#FFC4BC"></path>
            <path d="M1366,819 C1364.17234,817.136765 1362.16227,815.461701 1360,814 C1342,803 1317,806 1300,818 C1290,824 1282,832 1275,840 C1270,846 1265,851 1259,855 C1251,862 1237,866 1231,860 C1230.63376,859.701279 1230.29872,859.366237 1230,859 C1227,855 1227,847 1229,840 C1232,832 1238,824 1244,816 L1249,809 C1256,797 1267,780 1265,760 C1264.19697,750.561017 1260.72903,741.544367 1255,734 C1251.41243,728.980084 1247.01992,724.58757 1242,721 C1228,712 1212,709 1197,713 C1180,719 1169,731 1159,741 L1151,751 C1142,759 1130,764 1126,760 C1124,759 1123,756 1123,753 C1123,747 1125,739 1129,732 L1133,724 C1142,710 1152,693 1150,673 C1147,648 1124,627 1097,625 C1076,624 1053,633 1035,651 C1025,661 1017,672 1010,684 L1002,697 L1001,699 C996.581722,707.008129 999.491872,717.081721 1007.5,721.499999 C1015.50813,725.918277 1025.58172,723.008128 1030,715 L1032,712 L1038,701 C1044,691 1050,681 1058,674 C1069,663 1083,657 1095,658 C1106,658 1116,667 1117,676 C1118,685 1112,696 1105,707 L1100,716 C1092,729 1088,746 1091,761 C1092.58003,770.95914 1097.95607,779.919205 1106,786 C1116,794 1130,796 1144,792 C1155.32782,788.557771 1165.632,782.37526 1174,774 L1183,764 C1191,755 1198,747 1206,745 L1207,745 C1212,743 1218,744 1223,748 C1225.27042,749.312419 1227.29968,751.003462 1229,753 C1230.83377,755.654541 1231.87429,758.776103 1232,762 C1233,770 1229,779 1222,790 L1216,798 C1210,807 1203,817 1198,829 C1193,845 1194,862 1201,875 C1203.13982,878.722674 1205.83784,882.095202 1209,885 C1229,903 1260,897 1280,881 L1299,862 C1305,856 1311,849 1318,845 C1325,841 1335,838 1340,841 C1341.49635,841.272855 1342.88391,841.966633 1344,843 C1348,849 1342,862 1335,871 L1327,879 C1314.29257,890.464011 1305.2486,905.421343 1301,922 C1300.08553,927.294134 1300.08553,932.705866 1301,938 L1334,938 C1334.15741,936.671312 1334.15741,935.328688 1334,934 C1333.49555,932.715376 1333.15942,931.370882 1333,930 C1333.37957,929.35747 1333.71372,928.689172 1334,928 C1336,919 1344,910 1352,901 L1360,893 C1362.14512,890.445322 1364.14814,887.774624 1366,885 L1366,819 Z" id="Shape" fill="#303F62"></path>
            <path d="M205,0 C209,8 212,16 213,24 C219,38 225,54 237,61 C246,72 248,79 268,90 C280,99 294,107 306,111 C320,116 334,117 349,121 C363,122 378,116 394,120 C396,135 406,146 407,163 C413,177 423,189 430,200 C439,212 447,217 462,230 C473,239 480,248 500,251 C513,256 530,264 542,261 C557,263 568,262 587,260 C603,258 615,251 631,248 C644,242 656,238 668,225 C679,215 694,206 697,193 C705,181 716,167 717,153 C722,139 725,130 727,108 C728,92 725,73 724,58 C721,40 713,26 714,0 L205,0 Z" id="Shape" fill="#000000"></path>
            <path d="M249,659 L65,935 C64.2717538,935.957549 63.6037965,936.959485 63,938 L462,938 L299,660 C293.970099,651.031341 284.566955,645.396908 274.286174,645.191292 C264.005393,644.985677 254.384481,650.239629 249,659 Z" id="Shape" fill="#000000"></path>
        </g>
    </g>
</svg>